<?xml version="1.0" encoding="utf-8"?>
<!-- Generator: Adobe Illustrator 22.0.0, SVG Export Plug-In . SVG Version: 6.00 Build 0)  -->
<svg version="1.1" xmlns="http://www.w3.org/2000/svg" xmlns:xlink="http://www.w3.org/1999/xlink" x="0px" y="0px"
	 viewBox="0 0 663.5 517.2" style="enable-background:new 0 0 663.5 517.2;" xml:space="preserve">
<style type="text/css">
	.st0{display:none;}
	.st1{display:inline;fill:#FFFFFF;}
	.st2{fill:none;stroke:#B3B3B3;stroke-miterlimit:10;}
</style>
<g id="Camada_1" class="st0">
	
		<image style="display:inline;overflow:visible;" width="1366" height="768" xlink:href="8F08A0B.jpg"  transform="matrix(1 0 0 1 -363.3239 -169.1878)">
	</image>
	<rect x="-263.8" y="-8.7" class="st1" width="1123" height="566"/>
</g>
<g id="Camada_2">
	<circle class="st2" cx="324.2" cy="224.3" r="222"/>
	<circle class="st2" cx="131.2" cy="387.3" r="128"/>
	<circle class="st2" cx="522.2" cy="169.3" r="105"/>
	<circle class="st2" cx="580.7" cy="305.8" r="81.5"/>
</g>
<g id="Camada_3">
	<g>
		<path d="M228.5,152.9l-0.9-3.1h-4.7l-0.9,3.1H219l4.5-12.9h3.3l4.6,12.9H228.5z M226.9,147.6c-0.9-2.8-1.3-4.3-1.5-4.7
			s-0.2-0.7-0.2-0.9c-0.2,0.8-0.7,2.6-1.7,5.6H226.9z"/>
		<path d="M235.8,148v4.9h-2.7v-12.8h3.7c1.7,0,3,0.3,3.9,1s1.3,1.6,1.3,2.9c0,0.8-0.2,1.4-0.6,2s-1,1.1-1.8,1.4
			c1.9,2.9,3.2,4.8,3.8,5.6h-3l-3.1-4.9H235.8z M235.8,145.8h0.9c0.9,0,1.5-0.1,1.9-0.4s0.6-0.7,0.6-1.4c0-0.6-0.2-1-0.6-1.3
			s-1.1-0.4-1.9-0.4h-0.8V145.8z"/>
		<path d="M256.6,146.5c0,1.5-0.3,2.8-0.8,3.8s-1.3,1.8-2.4,2.2l3.1,3.5h-3.5l-2.4-2.9h-0.2c-2,0-3.5-0.6-4.5-1.7s-1.6-2.8-1.6-4.9
			s0.5-3.8,1.6-4.9s2.6-1.7,4.5-1.7s3.5,0.6,4.5,1.7S256.6,144.4,256.6,146.5z M247.2,146.5c0,1.4,0.3,2.5,0.8,3.2s1.4,1.1,2.4,1.1
			c2.2,0,3.3-1.4,3.3-4.3c0-2.9-1.1-4.3-3.2-4.3c-1.1,0-1.9,0.4-2.5,1.1S247.2,145.1,247.2,146.5z"/>
		<path d="M269.7,140.1v8.3c0,0.9-0.2,1.8-0.6,2.5s-1,1.3-1.8,1.6s-1.8,0.6-2.8,0.6c-1.7,0-2.9-0.4-3.8-1.3s-1.4-2-1.4-3.5v-8.3h2.7
			v7.9c0,1,0.2,1.7,0.6,2.2s1.1,0.7,2,0.7c0.9,0,1.5-0.2,1.9-0.7s0.6-1.2,0.6-2.2v-7.8H269.7z"/>
		<path d="M272.9,152.9v-12.8h2.7v12.8H272.9z"/>
		<path d="M283.8,152.9h-2.7v-10.6h-3.5v-2.3h9.7v2.3h-3.5V152.9z"/>
		<path d="M296.7,152.9h-7.4v-12.8h7.4v2.2H292v2.8h4.4v2.2H292v3.3h4.7V152.9z"/>
		<path d="M304.3,152.9h-2.7v-10.6h-3.5v-2.3h9.7v2.3h-3.5V152.9z"/>
		<path d="M320.2,140.1v8.3c0,0.9-0.2,1.8-0.6,2.5c-0.4,0.7-1,1.3-1.8,1.6s-1.8,0.6-2.8,0.6c-1.7,0-2.9-0.4-3.8-1.3s-1.4-2-1.4-3.5
			v-8.3h2.7v7.9c0,1,0.2,1.7,0.6,2.2s1.1,0.7,2,0.7c0.9,0,1.5-0.2,1.9-0.7s0.6-1.2,0.6-2.2v-7.8H320.2z"/>
		<path d="M326.1,148v4.9h-2.7v-12.8h3.7c1.7,0,3,0.3,3.9,1s1.3,1.6,1.3,2.9c0,0.8-0.2,1.4-0.6,2s-1,1.1-1.8,1.4
			c1.9,2.9,3.2,4.8,3.8,5.6h-3l-3.1-4.9H326.1z M326.1,145.8h0.9c0.9,0,1.5-0.1,1.9-0.4s0.6-0.7,0.6-1.4c0-0.6-0.2-1-0.6-1.3
			c-0.4-0.3-1.1-0.4-1.9-0.4h-0.8V145.8z"/>
		<path d="M343.1,152.9l-0.9-3.1h-4.7l-0.9,3.1h-2.9l4.5-12.9h3.3l4.6,12.9H343.1z M341.6,147.6c-0.9-2.8-1.3-4.3-1.5-4.7
			c-0.1-0.4-0.2-0.7-0.2-0.9c-0.2,0.8-0.7,2.6-1.7,5.6H341.6z"/>
		<path d="M222.3,190.8v5.3h-1.5v-12.8h3.5c1.6,0,2.7,0.3,3.5,0.9s1.1,1.5,1.1,2.7c0,1.7-0.9,2.8-2.6,3.4l3.5,5.8h-1.8l-3.1-5.3
			H222.3z M222.3,189.5h2c1.1,0,1.8-0.2,2.3-0.6s0.7-1,0.7-1.9c0-0.8-0.3-1.5-0.8-1.8s-1.3-0.6-2.4-0.6h-1.9V189.5z"/>
		<path d="M235.8,196.3c-1.4,0-2.5-0.4-3.4-1.3s-1.2-2.1-1.2-3.6c0-1.6,0.4-2.8,1.1-3.7s1.8-1.4,3.1-1.4c1.2,0,2.2,0.4,2.9,1.2
			s1.1,1.8,1.1,3.1v0.9h-6.6c0,1.1,0.3,2,0.9,2.6s1.3,0.9,2.3,0.9c1,0,2.1-0.2,3.1-0.7v1.3c-0.5,0.2-1,0.4-1.5,0.5
			S236.4,196.3,235.8,196.3z M235.4,187.6c-0.8,0-1.4,0.3-1.9,0.8s-0.7,1.2-0.8,2.1h5c0-0.9-0.2-1.6-0.6-2.1
			S236.2,187.6,235.4,187.6z"/>
		<path d="M243.9,196.1l-3.7-9.6h1.6l2.1,5.7c0.5,1.3,0.7,2.2,0.8,2.6h0.1c0.1-0.3,0.3-1,0.6-1.9s1.1-3.1,2.3-6.4h1.6l-3.7,9.6
			H243.9z"/>
		<path d="M250.7,183.9c0-0.3,0.1-0.6,0.2-0.7s0.4-0.2,0.6-0.2c0.2,0,0.4,0.1,0.6,0.2s0.3,0.4,0.3,0.7s-0.1,0.6-0.3,0.7
			s-0.4,0.2-0.6,0.2c-0.2,0-0.5-0.1-0.6-0.2S250.7,184.2,250.7,183.9z M252.3,196.1h-1.5v-9.6h1.5V196.1z"/>
		<path d="M258.5,195.1c0.3,0,0.5,0,0.7-0.1s0.4-0.1,0.6-0.1v1.1c-0.2,0.1-0.4,0.1-0.7,0.2s-0.6,0.1-0.8,0.1c-1.9,0-2.8-1-2.8-2.9
			v-5.7h-1.4v-0.7l1.4-0.6l0.6-2.1h0.8v2.2h2.8v1.1h-2.8v5.7c0,0.6,0.1,1,0.4,1.3S258,195.1,258.5,195.1z"/>
		<path d="M228.9,217.7l-1.6-4.1h-5.2l-1.6,4.1H219l5.1-12.9h1.3l5.1,12.9H228.9z M226.8,212.3l-1.5-4c-0.2-0.5-0.4-1.1-0.6-1.9
			c-0.1,0.6-0.3,1.2-0.6,1.9l-1.5,4H226.8z"/>
		<path d="M233.4,208.1v6.2c0,0.8,0.2,1.4,0.5,1.8s0.9,0.6,1.7,0.6c1,0,1.7-0.3,2.2-0.8s0.7-1.5,0.7-2.7v-5.1h1.5v9.6h-1.2l-0.2-1.3
			h-0.1c-0.3,0.5-0.7,0.8-1.2,1.1s-1.1,0.4-1.8,0.4c-1.2,0-2-0.3-2.6-0.8s-0.9-1.4-0.9-2.7v-6.3H233.4z"/>
		<path d="M246.1,216.7c0.3,0,0.5,0,0.7-0.1c0.2,0,0.4-0.1,0.6-0.1v1.1c-0.2,0.1-0.4,0.1-0.7,0.2c-0.3,0.1-0.6,0.1-0.8,0.1
			c-1.9,0-2.8-1-2.8-2.9v-5.7h-1.4v-0.7l1.4-0.6l0.6-2.1h0.8v2.2h2.8v1.1h-2.8v5.7c0,0.6,0.1,1,0.4,1.3S245.7,216.7,246.1,216.7z"/>
		<path d="M257.7,212.9c0,1.6-0.4,2.8-1.2,3.7c-0.8,0.9-1.9,1.3-3.3,1.3c-0.9,0-1.6-0.2-2.3-0.6s-1.2-1-1.5-1.7s-0.5-1.6-0.5-2.7
			c0-1.6,0.4-2.8,1.2-3.7s1.9-1.3,3.3-1.3c1.3,0,2.4,0.4,3.2,1.3S257.7,211.4,257.7,212.9z M250.4,212.9c0,1.2,0.2,2.2,0.7,2.8
			s1.2,1,2.2,1s1.7-0.3,2.2-1c0.5-0.6,0.7-1.6,0.7-2.8c0-1.2-0.2-2.2-0.7-2.8s-1.2-1-2.2-1c-1,0-1.7,0.3-2.2,0.9
			S250.4,211.7,250.4,212.9z"/>
		<path d="M266,206c-1.4,0-2.5,0.5-3.3,1.4s-1.2,2.2-1.2,3.9c0,1.7,0.4,3,1.2,3.9c0.8,0.9,1.9,1.4,3.4,1.4c0.9,0,1.9-0.2,3.1-0.5
			v1.3c-0.9,0.3-2,0.5-3.3,0.5c-1.9,0-3.4-0.6-4.4-1.7s-1.5-2.8-1.5-4.9c0-1.3,0.2-2.5,0.7-3.5s1.2-1.8,2.1-2.3s2-0.8,3.3-0.8
			c1.3,0,2.5,0.2,3.5,0.7l-0.6,1.3C267.9,206.3,266.9,206,266,206z"/>
		<path d="M279.9,217.7l-1.6-4.1h-5.2l-1.6,4.1h-1.5l5.1-12.9h1.3l5.1,12.9H279.9z M277.8,212.3l-1.5-4c-0.2-0.5-0.4-1.1-0.6-1.9
			c-0.1,0.6-0.3,1.2-0.6,1.9l-1.5,4H277.8z"/>
		<path d="M293.5,211.2c0,2.1-0.6,3.7-1.7,4.9c-1.2,1.1-2.8,1.7-5,1.7h-3.6v-12.8h3.9c2,0,3.6,0.6,4.7,1.7S293.5,209.2,293.5,211.2z
			 M291.9,211.2c0-1.7-0.4-2.9-1.3-3.8s-2.1-1.3-3.7-1.3h-2.2v10.3h1.8c1.8,0,3.1-0.4,4-1.3C291.4,214.3,291.9,213,291.9,211.2z"/>
		<path d="M228.9,239.3l-1.6-4.1h-5.2l-1.6,4.1H219l5.1-12.9h1.3l5.1,12.9H228.9z M226.8,233.9l-1.5-4c-0.2-0.5-0.4-1.1-0.6-1.9
			c-0.1,0.6-0.3,1.2-0.6,1.9l-1.5,4H226.8z"/>
		<path d="M236.4,229.5c0.4,0,0.8,0,1.2,0.1l-0.2,1.4c-0.4-0.1-0.8-0.1-1.1-0.1c-0.8,0-1.4,0.3-2,0.9s-0.8,1.4-0.8,2.4v5.2H232v-9.6
			h1.2l0.2,1.8h0.1c0.4-0.6,0.8-1.1,1.3-1.4S235.8,229.5,236.4,229.5z"/>
		<path d="M243.2,239.5c-1.4,0-2.5-0.4-3.2-1.3s-1.1-2.1-1.1-3.6c0-1.6,0.4-2.9,1.2-3.7s1.9-1.3,3.3-1.3c0.5,0,0.9,0,1.4,0.1
			s0.8,0.2,1.1,0.4l-0.4,1.2c-0.3-0.1-0.7-0.2-1.1-0.3s-0.7-0.1-1-0.1c-2,0-2.9,1.2-2.9,3.7c0,1.2,0.2,2.1,0.7,2.7s1.2,0.9,2.1,0.9
			c0.8,0,1.6-0.2,2.5-0.5v1.3C245,239.4,244.2,239.5,243.2,239.5z"/>
		<path d="M254.5,239.3v-6.2c0-0.8-0.2-1.4-0.5-1.8s-0.9-0.6-1.7-0.6c-1,0-1.8,0.3-2.2,0.8s-0.7,1.5-0.7,2.7v5h-1.5v-13.7h1.5v4.1
			c0,0.5,0,0.9-0.1,1.2h0.1c0.3-0.5,0.7-0.8,1.2-1.1s1.1-0.4,1.8-0.4c1.2,0,2.1,0.3,2.6,0.8s0.9,1.4,0.9,2.7v6.3H254.5z"/>
		<path d="M258.8,227.1c0-0.3,0.1-0.6,0.2-0.7s0.4-0.2,0.6-0.2c0.2,0,0.4,0.1,0.6,0.2s0.3,0.4,0.3,0.7s-0.1,0.6-0.3,0.7
			s-0.4,0.2-0.6,0.2c-0.2,0-0.5-0.1-0.6-0.2S258.8,227.4,258.8,227.1z M260.4,239.3h-1.5v-9.6h1.5V239.3z"/>
		<path d="M269.2,227.6c-1.4,0-2.5,0.5-3.3,1.4s-1.2,2.2-1.2,3.9c0,1.7,0.4,3,1.2,3.9s1.9,1.4,3.4,1.4c0.9,0,1.9-0.2,3.1-0.5v1.3
			c-0.9,0.3-2,0.5-3.3,0.5c-1.9,0-3.4-0.6-4.4-1.7s-1.5-2.8-1.5-4.9c0-1.3,0.2-2.5,0.7-3.5s1.2-1.8,2.1-2.3s2-0.8,3.3-0.8
			c1.3,0,2.5,0.2,3.5,0.7l-0.6,1.3C271.2,227.9,270.2,227.6,269.2,227.6z"/>
		<path d="M283.1,239.3l-1.6-4.1h-5.2l-1.6,4.1h-1.5l5.1-12.9h1.3l5.1,12.9H283.1z M281.1,233.9l-1.5-4c-0.2-0.5-0.4-1.1-0.6-1.9
			c-0.1,0.6-0.3,1.2-0.6,1.9l-1.5,4H281.1z"/>
		<path d="M296.7,232.8c0,2.1-0.6,3.7-1.7,4.9s-2.8,1.7-5,1.7h-3.6v-12.8h3.9c2,0,3.6,0.6,4.7,1.7S296.7,230.8,296.7,232.8z
			 M295.1,232.8c0-1.7-0.4-2.9-1.3-3.8s-2.1-1.3-3.7-1.3H288v10.3h1.8c1.8,0,3.1-0.4,4-1.3S295.1,234.6,295.1,232.8z"/>
	</g>
	<g>
		<path d="M493.2,110.1c0,0.6-0.2,1.2-0.6,1.6s-0.9,0.7-1.6,0.9v0c0.8,0.1,1.4,0.3,1.8,0.7s0.6,0.9,0.6,1.6c0,1-0.3,1.7-1,2.2
			s-1.7,0.8-3,0.8c-1.1,0-2-0.2-2.9-0.5v-1.8c0.4,0.2,0.8,0.4,1.3,0.5s0.9,0.2,1.4,0.2c0.7,0,1.2-0.1,1.5-0.4s0.5-0.6,0.5-1.1
			c0-0.5-0.2-0.8-0.6-1s-1-0.3-1.8-0.3h-0.8V112h0.8c0.8,0,1.3-0.1,1.7-0.3c0.4-0.2,0.5-0.6,0.5-1c0-0.8-0.5-1.1-1.4-1.1
			c-0.3,0-0.7,0.1-1,0.2c-0.3,0.1-0.7,0.3-1.1,0.6l-1-1.5c0.9-0.7,2-1,3.3-1c1,0,1.9,0.2,2.5,0.6
			C492.9,108.8,493.2,109.4,493.2,110.1z"/>
		<path d="M503.6,112.8c0,1.6-0.5,2.9-1.4,3.8c-0.9,0.9-2.3,1.3-4.1,1.3h-2.8v-10h3.1c1.6,0,2.9,0.4,3.8,1.3
			S503.6,111.3,503.6,112.8z M501.4,112.9c0-2.1-0.9-3.2-2.8-3.2h-1.1v6.5h0.9C500.4,116.2,501.4,115.1,501.4,112.9z"/>
		<path d="M488.6,147.3v4.2h-1.2v-10h2.7c1.2,0,2.1,0.2,2.7,0.7c0.6,0.5,0.9,1.2,0.9,2.1c0,1.3-0.7,2.2-2,2.7l2.7,4.5h-1.4l-2.4-4.2
			H488.6z M488.6,146.3h1.6c0.8,0,1.4-0.2,1.8-0.5s0.6-0.8,0.6-1.5c0-0.7-0.2-1.1-0.6-1.4c-0.4-0.3-1-0.4-1.9-0.4h-1.5V146.3z"/>
		<path d="M501,151.5v-4.8c0-0.6-0.1-1.1-0.4-1.4s-0.7-0.5-1.3-0.5c-0.8,0-1.4,0.2-1.7,0.6c-0.4,0.4-0.5,1.1-0.5,2.1v3.9h-1.1v-10.6
			h1.1v3.2c0,0.4,0,0.7-0.1,1h0.1c0.2-0.4,0.5-0.6,1-0.9c0.4-0.2,0.9-0.3,1.4-0.3c0.9,0,1.6,0.2,2.1,0.7c0.5,0.4,0.7,1.1,0.7,2.1
			v4.9H501z"/>
		<path d="M504.4,142c0-0.3,0.1-0.5,0.2-0.6s0.3-0.2,0.5-0.2c0.2,0,0.3,0.1,0.5,0.2s0.2,0.3,0.2,0.6s-0.1,0.4-0.2,0.6
			s-0.3,0.2-0.5,0.2c-0.2,0-0.4-0.1-0.5-0.2S504.4,142.2,504.4,142z M505.6,151.5h-1.1V144h1.1V151.5z"/>
		<path d="M513.2,151.5v-4.8c0-0.6-0.1-1.1-0.4-1.4s-0.7-0.5-1.3-0.5c-0.8,0-1.4,0.2-1.7,0.6s-0.5,1.1-0.5,2.1v3.9H508V144h0.9
			l0.2,1h0.1c0.2-0.4,0.6-0.7,1-0.9s0.9-0.3,1.4-0.3c0.9,0,1.6,0.2,2,0.7s0.7,1.1,0.7,2.1v4.9H513.2z"/>
		<path d="M523.1,147.7c0,1.2-0.3,2.2-0.9,2.9s-1.5,1-2.5,1c-0.7,0-1.3-0.2-1.8-0.5s-0.9-0.8-1.2-1.4s-0.4-1.3-0.4-2.1
			c0-1.2,0.3-2.2,0.9-2.9s1.5-1,2.5-1c1,0,1.9,0.3,2.5,1C522.8,145.6,523.1,146.6,523.1,147.7z M517.4,147.7c0,1,0.2,1.7,0.6,2.2
			s0.9,0.8,1.7,0.8s1.3-0.2,1.7-0.7c0.4-0.5,0.6-1.2,0.6-2.2c0-1-0.2-1.7-0.6-2.2c-0.4-0.5-1-0.7-1.7-0.7c-0.7,0-1.3,0.2-1.7,0.7
			S517.4,146.8,517.4,147.7z"/>
		<path d="M490.5,168.3h-1.2v-9h-3.2v-1h7.5v1h-3.2V168.3z"/>
		<path d="M501.1,168.3l-1.4-4.4c-0.1-0.3-0.2-0.9-0.5-1.8h-0.1c-0.2,0.8-0.3,1.4-0.5,1.8l-1.4,4.4H496l-2-7.5h1.2
			c0.5,1.9,0.9,3.3,1.1,4.3c0.3,1,0.4,1.6,0.4,2h0.1c0.1-0.3,0.1-0.6,0.2-1c0.1-0.4,0.2-0.7,0.3-1l1.4-4.3h1.2l1.3,4.3
			c0.3,0.8,0.4,1.4,0.5,2h0.1c0-0.2,0.1-0.4,0.1-0.8c0.1-0.3,0.6-2.2,1.4-5.5h1.2l-2.1,7.5H501.1z"/>
		<path d="M505.8,158.8c0-0.3,0.1-0.5,0.2-0.6s0.3-0.2,0.5-0.2c0.2,0,0.3,0.1,0.5,0.2s0.2,0.3,0.2,0.6s-0.1,0.4-0.2,0.6
			s-0.3,0.2-0.5,0.2c-0.2,0-0.4-0.1-0.5-0.2S505.8,159,505.8,158.8z M507,168.3h-1.1v-7.5h1.1V168.3z"/>
		<path d="M514.5,168.3v-4.8c0-0.6-0.1-1.1-0.4-1.4s-0.7-0.5-1.3-0.5c-0.8,0-1.4,0.2-1.7,0.6s-0.5,1.1-0.5,2.1v3.9h-1.1v-7.5h0.9
			l0.2,1h0.1c0.2-0.4,0.6-0.7,1-0.9s0.9-0.3,1.4-0.3c0.9,0,1.6,0.2,2,0.7s0.7,1.1,0.7,2.1v4.9H514.5z"/>
		<path d="M527.6,168.3v-4.9c0-0.6-0.1-1-0.4-1.3s-0.7-0.4-1.2-0.4c-0.7,0-1.2,0.2-1.6,0.6s-0.5,1-0.5,1.9v4.2h-1.1v-4.9
			c0-0.6-0.1-1-0.4-1.3s-0.7-0.4-1.2-0.4c-0.7,0-1.2,0.2-1.6,0.6c-0.3,0.4-0.5,1.1-0.5,2.1v3.9H518v-7.5h0.9l0.2,1h0.1
			c0.2-0.4,0.5-0.6,0.9-0.9c0.4-0.2,0.8-0.3,1.3-0.3c1.2,0,1.9,0.4,2.3,1.3h0.1c0.2-0.4,0.5-0.7,1-0.9s0.9-0.3,1.4-0.3
			c0.8,0,1.5,0.2,1.9,0.7c0.4,0.4,0.6,1.1,0.6,2.1v4.9H527.6z"/>
		<path d="M537.5,164.6c0,1.2-0.3,2.2-0.9,2.9s-1.5,1-2.5,1c-0.7,0-1.3-0.2-1.8-0.5s-0.9-0.8-1.2-1.4s-0.4-1.3-0.4-2.1
			c0-1.2,0.3-2.2,0.9-2.9s1.5-1,2.5-1c1,0,1.9,0.3,2.5,1C537.2,162.4,537.5,163.4,537.5,164.6z M531.8,164.6c0,1,0.2,1.7,0.6,2.2
			s0.9,0.8,1.7,0.8s1.3-0.2,1.7-0.7c0.4-0.5,0.6-1.2,0.6-2.2c0-1-0.2-1.7-0.6-2.2c-0.4-0.5-1-0.7-1.7-0.7c-0.7,0-1.3,0.2-1.7,0.7
			S531.8,163.6,531.8,164.6z"/>
		<path d="M541.9,167.5c0.2,0,0.4,0,0.6,0s0.3-0.1,0.4-0.1v0.9c-0.1,0.1-0.3,0.1-0.5,0.1c-0.2,0-0.5,0.1-0.6,0.1
			c-1.4,0-2.2-0.8-2.2-2.3v-4.5h-1.1v-0.5l1.1-0.5l0.5-1.6h0.7v1.7h2.2v0.9h-2.2v4.4c0,0.5,0.1,0.8,0.3,1S541.5,167.5,541.9,167.5z"
			/>
		<path d="M544.3,158.8c0-0.3,0.1-0.5,0.2-0.6s0.3-0.2,0.5-0.2c0.2,0,0.3,0.1,0.5,0.2s0.2,0.3,0.2,0.6s-0.1,0.4-0.2,0.6
			s-0.3,0.2-0.5,0.2c-0.2,0-0.4-0.1-0.5-0.2S544.3,159,544.3,158.8z M545.6,168.3h-1.1v-7.5h1.1V168.3z"/>
		<path d="M554.4,164.6c0,1.2-0.3,2.2-0.9,2.9s-1.5,1-2.5,1c-0.7,0-1.3-0.2-1.8-0.5s-0.9-0.8-1.2-1.4s-0.4-1.3-0.4-2.1
			c0-1.2,0.3-2.2,0.9-2.9s1.5-1,2.5-1c1,0,1.9,0.3,2.5,1C554.1,162.4,554.4,163.4,554.4,164.6z M548.7,164.6c0,1,0.2,1.7,0.6,2.2
			s0.9,0.8,1.7,0.8s1.3-0.2,1.7-0.7c0.4-0.5,0.6-1.2,0.6-2.2c0-1-0.2-1.7-0.6-2.2c-0.4-0.5-1-0.7-1.7-0.7c-0.7,0-1.3,0.2-1.7,0.7
			S548.7,163.6,548.7,164.6z"/>
		<path d="M561.6,168.3v-4.8c0-0.6-0.1-1.1-0.4-1.4s-0.7-0.5-1.3-0.5c-0.8,0-1.4,0.2-1.7,0.6s-0.5,1.1-0.5,2.1v3.9h-1.1v-7.5h0.9
			l0.2,1h0.1c0.2-0.4,0.6-0.7,1-0.9s0.9-0.3,1.4-0.3c0.9,0,1.6,0.2,2,0.7s0.7,1.1,0.7,2.1v4.9H561.6z"/>
		<path d="M493.1,182.4c0,0.9-0.3,1.6-1,2.1s-1.5,0.7-2.6,0.7c-1.2,0-2.1-0.2-2.7-0.5v-1.1c0.4,0.2,0.9,0.3,1.3,0.4s1,0.2,1.4,0.2
			c0.8,0,1.4-0.1,1.8-0.4s0.6-0.7,0.6-1.2c0-0.3-0.1-0.6-0.2-0.9c-0.1-0.2-0.4-0.4-0.7-0.6c-0.3-0.2-0.8-0.4-1.5-0.6
			c-0.9-0.3-1.6-0.7-2-1.2c-0.4-0.5-0.6-1.1-0.6-1.8c0-0.8,0.3-1.4,0.9-1.8s1.3-0.7,2.3-0.7c1,0,1.9,0.2,2.7,0.5l-0.4,1
			c-0.8-0.3-1.6-0.5-2.4-0.5c-0.6,0-1.1,0.1-1.4,0.4s-0.5,0.6-0.5,1.1c0,0.3,0.1,0.6,0.2,0.9s0.3,0.4,0.6,0.6
			c0.3,0.2,0.8,0.4,1.4,0.6c1,0.4,1.8,0.8,2.2,1.2C492.9,181.2,493.1,181.8,493.1,182.4z"/>
		<path d="M496.1,181.3c0.2-0.3,0.5-0.6,0.9-1.1l2.4-2.6h1.3l-3,3.2l3.2,4.3h-1.4l-2.6-3.5l-0.9,0.7v2.8h-1.1v-10.6h1.1v5.6
			C496.1,180.4,496,180.7,496.1,181.3L496.1,181.3z"/>
		<path d="M505.4,185.2c-1.1,0-2-0.3-2.6-1c-0.6-0.7-1-1.6-1-2.8c0-1.2,0.3-2.2,0.9-2.9c0.6-0.7,1.4-1.1,2.4-1.1
			c0.9,0,1.7,0.3,2.2,0.9s0.8,1.4,0.8,2.4v0.7H503c0,0.9,0.2,1.5,0.7,2c0.4,0.5,1,0.7,1.8,0.7c0.8,0,1.6-0.2,2.4-0.5v1
			c-0.4,0.2-0.8,0.3-1.1,0.4C506.4,185.2,505.9,185.2,505.4,185.2z M505.1,178.4c-0.6,0-1.1,0.2-1.4,0.6c-0.4,0.4-0.6,0.9-0.6,1.6
			h3.9c0-0.7-0.2-1.3-0.5-1.6S505.7,178.4,505.1,178.4z"/>
		<path d="M512.6,184.3c0.2,0,0.4,0,0.6,0s0.3-0.1,0.4-0.1v0.9c-0.1,0.1-0.3,0.1-0.5,0.1c-0.2,0-0.5,0.1-0.6,0.1
			c-1.4,0-2.2-0.8-2.2-2.3v-4.5h-1.1v-0.5l1.1-0.5l0.5-1.6h0.7v1.7h2.2v0.9h-2.2v4.4c0,0.5,0.1,0.8,0.3,1S512.2,184.3,512.6,184.3z"
			/>
		<path d="M518.1,185.2c-1.1,0-1.9-0.3-2.5-1c-0.6-0.7-0.9-1.6-0.9-2.8c0-1.3,0.3-2.2,0.9-2.9c0.6-0.7,1.5-1,2.6-1
			c0.4,0,0.7,0,1.1,0.1s0.6,0.2,0.8,0.3l-0.3,1c-0.3-0.1-0.5-0.2-0.8-0.2s-0.6-0.1-0.8-0.1c-1.5,0-2.3,1-2.3,2.9
			c0,0.9,0.2,1.6,0.6,2.1c0.4,0.5,0.9,0.7,1.7,0.7c0.6,0,1.3-0.1,1.9-0.4v1C519.5,185.1,518.8,185.2,518.1,185.2z"/>
		<path d="M526.9,185.1v-4.8c0-0.6-0.1-1.1-0.4-1.4s-0.7-0.5-1.3-0.5c-0.8,0-1.4,0.2-1.7,0.6c-0.4,0.4-0.5,1.1-0.5,2.1v3.9h-1.1
			v-10.6h1.1v3.2c0,0.4,0,0.7-0.1,1h0.1c0.2-0.4,0.5-0.6,1-0.9c0.4-0.2,0.9-0.3,1.4-0.3c0.9,0,1.6,0.2,2.1,0.7
			c0.5,0.4,0.7,1.1,0.7,2.1v4.9H526.9z"/>
		<path d="M538.1,175.1v6.5c0,1.1-0.3,2-1,2.7s-1.6,1-2.8,1s-2.1-0.3-2.8-1c-0.7-0.7-1-1.6-1-2.7v-6.4h1.2v6.5
			c0,0.8,0.2,1.5,0.7,1.9s1.1,0.7,2,0.7c0.8,0,1.5-0.2,1.9-0.7s0.7-1.1,0.7-1.9v-6.5H538.1z"/>
		<path d="M544,185.2c-0.5,0-0.9-0.1-1.3-0.3c-0.4-0.2-0.7-0.5-1-0.8h-0.1c0.1,0.4,0.1,0.9,0.1,1.2v3.1h-1.1v-10.9h0.9l0.2,1h0.1
			c0.3-0.4,0.6-0.7,1-0.9s0.8-0.3,1.3-0.3c1,0,1.8,0.3,2.3,1c0.5,0.7,0.8,1.6,0.8,2.9c0,1.2-0.3,2.2-0.8,2.9
			C545.7,184.9,545,185.2,544,185.2z M543.8,178.4c-0.8,0-1.3,0.2-1.7,0.6s-0.5,1.1-0.5,2v0.3c0,1.1,0.2,1.8,0.5,2.3
			s0.9,0.7,1.7,0.7c0.6,0,1.2-0.3,1.5-0.8c0.4-0.5,0.6-1.2,0.6-2.2c0-0.9-0.2-1.7-0.6-2.1C545,178.7,544.5,178.4,543.8,178.4z"/>
		<path d="M493.1,191.9h1.3l-3.6,10h-1.1l-3.6-10h1.2l2.3,6.5c0.3,0.7,0.5,1.5,0.6,2.2c0.2-0.7,0.4-1.5,0.6-2.2L493.1,191.9z"/>
		<path d="M494.9,198.7v-1h3.4v1H494.9z"/>
		<path d="M501.4,197.7v4.2h-1.2v-10h2.7c1.2,0,2.1,0.2,2.7,0.7c0.6,0.5,0.9,1.2,0.9,2.1c0,1.3-0.7,2.2-2,2.7l2.7,4.5h-1.4l-2.4-4.2
			H501.4z M501.4,196.7h1.6c0.8,0,1.4-0.2,1.8-0.5s0.6-0.8,0.6-1.5c0-0.7-0.2-1.1-0.6-1.4c-0.4-0.3-1-0.4-1.9-0.4h-1.5V196.7z"/>
		<path d="M513.3,201.9l-0.2-1.1h-0.1c-0.4,0.5-0.7,0.8-1.1,1c-0.4,0.2-0.8,0.2-1.4,0.2c-0.7,0-1.3-0.2-1.7-0.6
			c-0.4-0.4-0.6-0.9-0.6-1.6c0-1.5,1.2-2.3,3.6-2.4l1.3,0v-0.5c0-0.6-0.1-1-0.4-1.3c-0.3-0.3-0.7-0.4-1.2-0.4
			c-0.6,0-1.3,0.2-2.1,0.6l-0.3-0.9c0.4-0.2,0.8-0.4,1.2-0.5c0.4-0.1,0.9-0.2,1.3-0.2c0.9,0,1.6,0.2,2,0.6c0.4,0.4,0.6,1,0.6,1.9
			v5.1H513.3z M510.8,201.1c0.7,0,1.3-0.2,1.7-0.6c0.4-0.4,0.6-0.9,0.6-1.6v-0.7l-1.1,0c-0.9,0-1.6,0.2-2,0.4
			c-0.4,0.2-0.6,0.6-0.6,1.2c0,0.4,0.1,0.7,0.4,0.9C510,201,510.3,201.1,510.8,201.1z"/>
		<path d="M515.3,194.4h1.2l1.6,4.3c0.4,1,0.6,1.7,0.7,2.1h0.1c0.1-0.2,0.2-0.6,0.4-1.2c0.2-0.6,0.8-2.3,1.9-5.2h1.2l-3.2,8.5
			c-0.3,0.8-0.7,1.4-1.1,1.8c-0.4,0.4-0.9,0.5-1.6,0.5c-0.3,0-0.7,0-1-0.1v-0.9c0.3,0.1,0.5,0.1,0.8,0.1c0.8,0,1.3-0.4,1.7-1.3
			l0.4-1.1L515.3,194.4z"/>
	</g>
	<g>
		<path d="M57.6,340.8c0,1.6-0.5,2.9-1.4,3.8s-2.3,1.3-4.1,1.3h-2.8v-10h3.1c1.6,0,2.9,0.4,3.8,1.3S57.6,339.3,57.6,340.8z
			 M55.4,340.9c0-2.1-0.9-3.2-2.8-3.2h-1.1v6.5h0.9C54.4,344.2,55.4,343.1,55.4,340.9z"/>
		<path d="M65.4,345.9h-5.8v-10h5.8v1.7h-3.6v2.2h3.4v1.7h-3.4v2.6h3.6V345.9z"/>
		<path d="M73.4,343.1c0,0.9-0.3,1.6-1,2.1s-1.6,0.8-2.7,0.8c-1.1,0-2-0.2-2.8-0.6v-2c0.7,0.3,1.2,0.5,1.7,0.6s0.9,0.2,1.3,0.2
			c0.5,0,0.8-0.1,1.1-0.3s0.4-0.4,0.4-0.8c0-0.2-0.1-0.4-0.2-0.5c-0.1-0.2-0.3-0.3-0.5-0.4s-0.6-0.4-1.3-0.7
			c-0.6-0.3-1.1-0.6-1.4-0.8s-0.5-0.6-0.7-0.9s-0.3-0.8-0.3-1.2c0-0.9,0.3-1.6,0.9-2.1s1.4-0.8,2.5-0.8c0.5,0,1,0.1,1.5,0.2
			s1,0.3,1.5,0.5l-0.7,1.6c-0.5-0.2-1-0.4-1.3-0.5s-0.7-0.1-1-0.1c-0.4,0-0.7,0.1-0.9,0.3s-0.3,0.4-0.3,0.7c0,0.2,0,0.3,0.1,0.5
			c0.1,0.1,0.2,0.3,0.4,0.4c0.2,0.1,0.6,0.4,1.3,0.7c0.9,0.4,1.6,0.9,1.9,1.3C73.2,341.9,73.4,342.5,73.4,343.1z"/>
		<path d="M75.2,345.9v-10h2.1v10H75.2z"/>
		<path d="M83.6,340.3h4v5.2c-0.6,0.2-1.2,0.4-1.8,0.4c-0.6,0.1-1.1,0.1-1.7,0.1c-1.5,0-2.7-0.4-3.5-1.3c-0.8-0.9-1.2-2.2-1.2-3.8
			c0-1.6,0.5-2.9,1.4-3.8s2.2-1.4,3.8-1.4c1,0,2,0.2,3,0.6l-0.7,1.7c-0.7-0.4-1.5-0.5-2.3-0.5c-0.9,0-1.6,0.3-2.2,0.9
			s-0.8,1.4-0.8,2.5c0,1.1,0.2,1.9,0.7,2.5c0.4,0.6,1.1,0.9,1.9,0.9c0.4,0,0.9,0,1.3-0.1v-2.1h-1.9V340.3z"/>
		<path d="M98.9,345.9h-2.7l-4.3-7.6h-0.1c0.1,1.3,0.1,2.3,0.1,2.9v4.7H90v-10h2.7l4.3,7.5h0c-0.1-1.3-0.1-2.2-0.1-2.8v-4.7h1.9
			V345.9z"/>
		<path d="M55.8,372.4c0,1-0.3,1.8-1,2.3c-0.7,0.5-1.7,0.8-3,0.8h-1.2v3.9h-1.2v-10H52C54.5,369.5,55.8,370.5,55.8,372.4z
			 M50.6,374.6h1c1,0,1.8-0.2,2.2-0.5s0.7-0.9,0.7-1.6c0-0.7-0.2-1.2-0.6-1.5s-1.1-0.5-2-0.5h-1.3V374.6z"/>
		<path d="M62.8,379.5v-4.8c0-0.6-0.1-1.1-0.4-1.4s-0.7-0.5-1.3-0.5c-0.8,0-1.4,0.2-1.7,0.6s-0.5,1.1-0.5,2.1v3.9h-1.1v-10.6h1.1
			v3.2c0,0.4,0,0.7-0.1,1h0.1c0.2-0.4,0.5-0.6,1-0.9c0.4-0.2,0.9-0.3,1.4-0.3c0.9,0,1.6,0.2,2.1,0.7c0.5,0.4,0.7,1.1,0.7,2.1v4.9
			H62.8z"/>
		<path d="M72.7,375.7c0,1.2-0.3,2.2-0.9,2.9c-0.6,0.7-1.5,1-2.5,1c-0.7,0-1.3-0.2-1.8-0.5s-0.9-0.8-1.2-1.4s-0.4-1.3-0.4-2.1
			c0-1.2,0.3-2.2,0.9-2.9c0.6-0.7,1.5-1,2.5-1c1,0,1.9,0.3,2.5,1S72.7,374.6,72.7,375.7z M67,375.7c0,1,0.2,1.7,0.6,2.2
			s0.9,0.8,1.7,0.8s1.3-0.3,1.7-0.7c0.4-0.5,0.6-1.2,0.6-2.2c0-1-0.2-1.7-0.6-2.2c-0.4-0.5-1-0.7-1.7-0.7c-0.7,0-1.3,0.2-1.7,0.7
			S67,374.8,67,375.7z"/>
		<path d="M77.1,378.7c0.2,0,0.4,0,0.6,0c0.2,0,0.3-0.1,0.4-0.1v0.9c-0.1,0.1-0.3,0.1-0.5,0.1c-0.2,0-0.5,0.1-0.6,0.1
			c-1.4,0-2.2-0.8-2.2-2.3v-4.5h-1.1v-0.5l1.1-0.5l0.5-1.6h0.7v1.7h2.2v0.9h-2.2v4.4c0,0.5,0.1,0.8,0.3,1S76.8,378.7,77.1,378.7z"/>
		<path d="M86.1,375.7c0,1.2-0.3,2.2-0.9,2.9c-0.6,0.7-1.5,1-2.5,1c-0.7,0-1.3-0.2-1.8-0.5s-0.9-0.8-1.2-1.4s-0.4-1.3-0.4-2.1
			c0-1.2,0.3-2.2,0.9-2.9c0.6-0.7,1.5-1,2.5-1c1,0,1.9,0.3,2.5,1S86.1,374.6,86.1,375.7z M80.4,375.7c0,1,0.2,1.7,0.6,2.2
			s0.9,0.8,1.7,0.8s1.3-0.3,1.7-0.7c0.4-0.5,0.6-1.2,0.6-2.2c0-1-0.2-1.7-0.6-2.2c-0.4-0.5-1-0.7-1.7-0.7c-0.7,0-1.3,0.2-1.7,0.7
			S80.4,374.8,80.4,375.7z"/>
		<path d="M93,377.5c0,0.7-0.3,1.2-0.8,1.6s-1.2,0.6-2.2,0.6c-1,0-1.8-0.2-2.3-0.5v-1.1c0.4,0.2,0.7,0.3,1.2,0.4s0.8,0.2,1.2,0.2
			c0.6,0,1-0.1,1.4-0.3c0.3-0.2,0.5-0.5,0.5-0.9c0-0.3-0.1-0.5-0.4-0.7c-0.3-0.2-0.7-0.5-1.5-0.7c-0.7-0.3-1.2-0.5-1.5-0.7
			c-0.3-0.2-0.5-0.4-0.7-0.7s-0.2-0.5-0.2-0.9c0-0.6,0.2-1.1,0.7-1.4c0.5-0.4,1.2-0.5,2-0.5c0.8,0,1.6,0.2,2.4,0.5l-0.4,0.9
			c-0.8-0.3-1.4-0.5-2-0.5c-0.5,0-0.9,0.1-1.2,0.3s-0.4,0.4-0.4,0.7c0,0.2,0.1,0.4,0.2,0.5s0.3,0.3,0.5,0.4s0.7,0.3,1.3,0.6
			c0.9,0.3,1.5,0.6,1.8,1S93,377,93,377.5z"/>
		<path d="M99.9,379.5v-4.8c0-0.6-0.1-1.1-0.4-1.4s-0.7-0.5-1.3-0.5c-0.8,0-1.4,0.2-1.7,0.6s-0.5,1.1-0.5,2.1v3.9h-1.1v-10.6h1.1
			v3.2c0,0.4,0,0.7-0.1,1h0.1c0.2-0.4,0.5-0.6,1-0.9c0.4-0.2,0.9-0.3,1.4-0.3c0.9,0,1.6,0.2,2.1,0.7c0.5,0.4,0.7,1.1,0.7,2.1v4.9
			H99.9z"/>
		<path d="M109.9,375.7c0,1.2-0.3,2.2-0.9,2.9c-0.6,0.7-1.5,1-2.5,1c-0.7,0-1.3-0.2-1.8-0.5s-0.9-0.8-1.2-1.4s-0.4-1.3-0.4-2.1
			c0-1.2,0.3-2.2,0.9-2.9c0.6-0.7,1.5-1,2.5-1c1,0,1.9,0.3,2.5,1S109.9,374.6,109.9,375.7z M104.2,375.7c0,1,0.2,1.7,0.6,2.2
			s0.9,0.8,1.7,0.8s1.3-0.3,1.7-0.7c0.4-0.5,0.6-1.2,0.6-2.2c0-1-0.2-1.7-0.6-2.2c-0.4-0.5-1-0.7-1.7-0.7c-0.7,0-1.3,0.2-1.7,0.7
			S104.2,374.8,104.2,375.7z"/>
		<path d="M115.3,379.6c-0.5,0-0.9-0.1-1.3-0.3c-0.4-0.2-0.7-0.5-1-0.8h-0.1c0.1,0.4,0.1,0.9,0.1,1.2v3.1h-1.1V372h0.9l0.2,1h0.1
			c0.3-0.4,0.6-0.7,1-0.9s0.8-0.3,1.3-0.3c1,0,1.8,0.3,2.3,1s0.8,1.6,0.8,2.9c0,1.2-0.3,2.2-0.8,2.9
			C117.1,379.3,116.3,379.6,115.3,379.6z M115.2,372.8c-0.8,0-1.3,0.2-1.7,0.6s-0.5,1.1-0.5,2v0.3c0,1.1,0.2,1.8,0.5,2.3
			c0.4,0.5,0.9,0.7,1.7,0.7c0.6,0,1.2-0.3,1.5-0.8s0.6-1.2,0.6-2.2c0-0.9-0.2-1.7-0.6-2.2C116.4,373.1,115.8,372.8,115.2,372.8z"/>
		<path d="M49.4,396.3v-10h1.2v10H49.4z"/>
		<path d="M54.3,396.3h-1.1v-10.6h1.1V396.3z"/>
		<path d="M57.8,396.3h-1.1v-10.6h1.1V396.3z"/>
		<path d="M61.3,388.8v4.9c0,0.6,0.1,1.1,0.4,1.4s0.7,0.5,1.3,0.5c0.8,0,1.4-0.2,1.7-0.6c0.4-0.4,0.5-1.1,0.5-2.1v-3.9h1.1v7.5h-0.9
			l-0.2-1h-0.1c-0.2,0.4-0.6,0.7-1,0.8c-0.4,0.2-0.9,0.3-1.4,0.3c-0.9,0-1.6-0.2-2-0.6c-0.5-0.4-0.7-1.1-0.7-2.1v-4.9H61.3z"/>
		<path d="M73.7,394.3c0,0.7-0.3,1.2-0.8,1.6c-0.5,0.4-1.2,0.6-2.2,0.6c-1,0-1.8-0.2-2.3-0.5v-1.1c0.4,0.2,0.7,0.3,1.2,0.4
			c0.4,0.1,0.8,0.2,1.2,0.2c0.6,0,1-0.1,1.4-0.3s0.5-0.5,0.5-0.9c0-0.3-0.1-0.5-0.4-0.7s-0.7-0.5-1.5-0.7c-0.7-0.3-1.2-0.5-1.5-0.7
			s-0.5-0.4-0.7-0.7s-0.2-0.5-0.2-0.9c0-0.6,0.2-1.1,0.7-1.4s1.2-0.5,2-0.5c0.8,0,1.6,0.2,2.4,0.5l-0.4,0.9c-0.8-0.3-1.4-0.5-2-0.5
			c-0.5,0-0.9,0.1-1.2,0.3c-0.3,0.2-0.4,0.4-0.4,0.7c0,0.2,0.1,0.4,0.2,0.5c0.1,0.1,0.3,0.3,0.5,0.4c0.2,0.1,0.7,0.3,1.3,0.6
			c0.9,0.3,1.5,0.6,1.8,1S73.7,393.8,73.7,394.3z"/>
		<path d="M77.9,395.5c0.2,0,0.4,0,0.6,0s0.3-0.1,0.4-0.1v0.9c-0.1,0.1-0.3,0.1-0.5,0.1s-0.5,0.1-0.6,0.1c-1.4,0-2.2-0.8-2.2-2.3
			v-4.5h-1.1v-0.5l1.1-0.5l0.5-1.6h0.7v1.7h2.2v0.9h-2.2v4.4c0,0.5,0.1,0.8,0.3,1C77.3,395.4,77.5,395.5,77.9,395.5z"/>
		<path d="M83.9,388.7c0.3,0,0.6,0,0.9,0.1l-0.2,1.1c-0.3-0.1-0.6-0.1-0.8-0.1c-0.6,0-1.1,0.2-1.6,0.7s-0.6,1.1-0.6,1.8v4h-1.1v-7.5
			h0.9l0.1,1.4h0.1c0.3-0.5,0.6-0.9,1-1.1C83,388.8,83.4,388.7,83.9,388.7z"/>
		<path d="M90.8,396.3l-0.2-1.1h-0.1c-0.4,0.5-0.7,0.8-1.1,1s-0.8,0.2-1.4,0.2c-0.7,0-1.3-0.2-1.7-0.6s-0.6-0.9-0.6-1.6
			c0-1.5,1.2-2.3,3.6-2.4l1.3,0v-0.5c0-0.6-0.1-1-0.4-1.3s-0.7-0.4-1.2-0.4c-0.6,0-1.3,0.2-2.1,0.6l-0.3-0.9
			c0.4-0.2,0.8-0.4,1.2-0.5c0.4-0.1,0.9-0.2,1.3-0.2c0.9,0,1.6,0.2,2,0.6s0.6,1,0.6,1.9v5.1H90.8z M88.2,395.5
			c0.7,0,1.3-0.2,1.7-0.6c0.4-0.4,0.6-0.9,0.6-1.6v-0.7l-1.1,0c-0.9,0-1.6,0.2-2,0.4s-0.6,0.6-0.6,1.2c0,0.4,0.1,0.7,0.4,0.9
			C87.4,395.4,87.8,395.5,88.2,395.5z"/>
		<path d="M96.4,395.5c0.2,0,0.4,0,0.6,0s0.3-0.1,0.4-0.1v0.9c-0.1,0.1-0.3,0.1-0.5,0.1s-0.5,0.1-0.6,0.1c-1.4,0-2.2-0.8-2.2-2.3
			v-4.5H93v-0.5l1.1-0.5l0.5-1.6h0.7v1.7h2.2v0.9h-2.2v4.4c0,0.5,0.1,0.8,0.3,1C95.7,395.4,96,395.5,96.4,395.5z"/>
		<path d="M105.4,392.6c0,1.2-0.3,2.2-0.9,2.9s-1.5,1-2.5,1c-0.7,0-1.3-0.2-1.8-0.5s-0.9-0.8-1.2-1.4s-0.4-1.3-0.4-2.1
			c0-1.2,0.3-2.2,0.9-2.9s1.5-1,2.5-1c1,0,1.9,0.3,2.5,1S105.4,391.4,105.4,392.6z M99.6,392.6c0,1,0.2,1.7,0.6,2.2
			c0.4,0.5,0.9,0.8,1.7,0.8s1.3-0.3,1.7-0.7s0.6-1.2,0.6-2.2c0-1-0.2-1.7-0.6-2.2s-1-0.7-1.7-0.7c-0.7,0-1.3,0.2-1.7,0.7
			C99.8,390.9,99.6,391.6,99.6,392.6z"/>
		<path d="M110.8,388.7c0.3,0,0.6,0,0.9,0.1l-0.2,1.1c-0.3-0.1-0.6-0.1-0.8-0.1c-0.6,0-1.1,0.2-1.6,0.7s-0.6,1.1-0.6,1.8v4h-1.1
			v-7.5h0.9l0.1,1.4h0.1c0.3-0.5,0.6-0.9,1-1.1C109.9,388.8,110.3,388.7,110.8,388.7z"/>
		<path d="M49.4,413.1v-10h1.2v10H49.4z"/>
		<path d="M58.3,413.1v-4.8c0-0.6-0.1-1.1-0.4-1.4s-0.7-0.5-1.3-0.5c-0.8,0-1.4,0.2-1.7,0.6s-0.5,1.1-0.5,2.1v3.9h-1.1v-7.5h0.9
			l0.2,1h0.1c0.2-0.4,0.6-0.7,1-0.9s0.9-0.3,1.4-0.3c0.9,0,1.6,0.2,2,0.7s0.7,1.1,0.7,2.1v4.9H58.3z"/>
		<path d="M69.9,408c0,1.7-0.4,2.9-1.3,3.8s-2.2,1.3-3.9,1.3h-2.8v-10H65c1.6,0,2.8,0.4,3.6,1.3S69.9,406.5,69.9,408z M68.7,408.1
			c0-1.3-0.3-2.3-1-2.9c-0.7-0.7-1.6-1-2.9-1h-1.7v8h1.4c1.4,0,2.4-0.3,3.1-1S68.7,409.4,68.7,408.1z"/>
		<path d="M75.1,413.2c-1.1,0-2-0.3-2.6-1c-0.6-0.7-1-1.6-1-2.8c0-1.2,0.3-2.2,0.9-2.9s1.4-1.1,2.4-1.1c0.9,0,1.7,0.3,2.2,0.9
			s0.8,1.4,0.8,2.4v0.7h-5.2c0,0.9,0.2,1.5,0.7,2c0.4,0.5,1,0.7,1.8,0.7c0.8,0,1.6-0.2,2.4-0.5v1c-0.4,0.2-0.8,0.3-1.1,0.4
			S75.6,413.2,75.1,413.2z M74.8,406.4c-0.6,0-1.1,0.2-1.4,0.6c-0.4,0.4-0.6,0.9-0.6,1.6h3.9c0-0.7-0.2-1.3-0.5-1.6
			S75.4,406.4,74.8,406.4z"/>
		<path d="M84.6,411.1c0,0.7-0.3,1.2-0.8,1.6c-0.5,0.4-1.2,0.6-2.2,0.6c-1,0-1.8-0.2-2.3-0.5v-1.1c0.4,0.2,0.7,0.3,1.2,0.4
			c0.4,0.1,0.8,0.2,1.2,0.2c0.6,0,1-0.1,1.4-0.3s0.5-0.5,0.5-0.9c0-0.3-0.1-0.5-0.4-0.7s-0.7-0.5-1.5-0.7c-0.7-0.3-1.2-0.5-1.5-0.7
			s-0.5-0.4-0.7-0.7s-0.2-0.5-0.2-0.9c0-0.6,0.2-1.1,0.7-1.4s1.2-0.5,2-0.5c0.8,0,1.6,0.2,2.4,0.5l-0.4,0.9c-0.8-0.3-1.4-0.5-2-0.5
			c-0.5,0-0.9,0.1-1.2,0.3c-0.3,0.2-0.4,0.4-0.4,0.7c0,0.2,0.1,0.4,0.2,0.5c0.1,0.1,0.3,0.3,0.5,0.4c0.2,0.1,0.7,0.3,1.3,0.6
			c0.9,0.3,1.5,0.7,1.8,1S84.6,410.6,84.6,411.1z"/>
		<path d="M86.4,403.6c0-0.3,0.1-0.4,0.2-0.6s0.3-0.2,0.5-0.2c0.2,0,0.3,0.1,0.5,0.2s0.2,0.3,0.2,0.6c0,0.3-0.1,0.4-0.2,0.6
			s-0.3,0.2-0.5,0.2c-0.2,0-0.4-0.1-0.5-0.2S86.4,403.8,86.4,403.6z M87.6,413.1h-1.1v-7.5h1.1V413.1z"/>
		<path d="M96.2,405.6v0.7l-1.4,0.2c0.1,0.2,0.2,0.4,0.3,0.6s0.2,0.5,0.2,0.9c0,0.7-0.3,1.3-0.8,1.8s-1.2,0.7-2.1,0.7
			c-0.2,0-0.4,0-0.6-0.1c-0.5,0.3-0.7,0.6-0.7,1c0,0.2,0.1,0.4,0.3,0.5s0.5,0.1,0.9,0.1h1.3c0.8,0,1.4,0.2,1.9,0.5s0.7,0.8,0.7,1.5
			c0,0.8-0.3,1.5-1,1.9s-1.6,0.7-2.9,0.7c-1,0-1.7-0.2-2.3-0.5c-0.5-0.4-0.8-0.9-0.8-1.5c0-0.5,0.1-0.9,0.4-1.2
			c0.3-0.3,0.7-0.6,1.2-0.7c-0.2-0.1-0.4-0.2-0.5-0.4c-0.1-0.2-0.2-0.4-0.2-0.6c0-0.3,0.1-0.5,0.2-0.7s0.4-0.4,0.7-0.6
			c-0.4-0.2-0.7-0.4-0.9-0.8s-0.4-0.8-0.4-1.3c0-0.8,0.2-1.5,0.7-1.9s1.2-0.7,2.1-0.7c0.4,0,0.7,0,1.1,0.1H96.2z M90.2,414.4
			c0,0.4,0.2,0.7,0.5,0.9c0.3,0.2,0.8,0.3,1.5,0.3c1,0,1.7-0.1,2.1-0.4s0.7-0.7,0.7-1.2c0-0.4-0.1-0.7-0.4-0.8s-0.7-0.2-1.4-0.2
			h-1.4c-0.5,0-0.9,0.1-1.2,0.4S90.2,413.9,90.2,414.4z M90.8,408c0,0.5,0.1,0.9,0.4,1.2c0.3,0.3,0.7,0.4,1.2,0.4
			c1.1,0,1.7-0.5,1.7-1.6c0-1.1-0.6-1.7-1.7-1.7c-0.5,0-0.9,0.1-1.2,0.4S90.8,407.4,90.8,408z"/>
		<path d="M102.8,413.1v-4.8c0-0.6-0.1-1.1-0.4-1.4s-0.7-0.5-1.3-0.5c-0.8,0-1.4,0.2-1.7,0.6s-0.5,1.1-0.5,2.1v3.9h-1.1v-7.5h0.9
			l0.2,1h0.1c0.2-0.4,0.6-0.7,1-0.9s0.9-0.3,1.4-0.3c0.9,0,1.6,0.2,2,0.7s0.7,1.1,0.7,2.1v4.9H102.8z"/>
	</g>
	<g>
		<path d="M558.5,260.2c0,0.8-0.3,1.5-0.8,1.9s-1.3,0.7-2.3,0.7h-0.7v2.8H553v-7.9h2.5c1,0,1.7,0.2,2.2,0.6
			C558.2,258.8,558.5,259.4,558.5,260.2z M554.7,261.5h0.5c0.5,0,0.9-0.1,1.1-0.3c0.3-0.2,0.4-0.5,0.4-0.9c0-0.4-0.1-0.7-0.3-0.9
			c-0.2-0.2-0.5-0.3-1-0.3h-0.8V261.5z"/>
		<path d="M561.6,262.6v3h-1.7v-7.9h2.3c1.1,0,1.9,0.2,2.4,0.6c0.5,0.4,0.8,1,0.8,1.8c0,0.5-0.1,0.9-0.4,1.2
			c-0.3,0.4-0.6,0.6-1.1,0.8c1.2,1.8,2,2.9,2.3,3.4h-1.8l-1.9-3H561.6z M561.6,261.3h0.5c0.5,0,0.9-0.1,1.2-0.3
			c0.3-0.2,0.4-0.5,0.4-0.8c0-0.4-0.1-0.6-0.4-0.8c-0.3-0.2-0.7-0.2-1.2-0.2h-0.5V261.3z"/>
		<path d="M574.3,261.7c0,1.3-0.3,2.3-1,3s-1.6,1-2.8,1s-2.1-0.3-2.8-1s-1-1.7-1-3s0.3-2.3,1-3c0.6-0.7,1.6-1,2.8-1
			c1.2,0,2.1,0.3,2.8,1C574,259.4,574.3,260.4,574.3,261.7z M568.6,261.7c0,0.9,0.2,1.5,0.5,2c0.3,0.4,0.8,0.7,1.5,0.7
			c1.3,0,2-0.9,2-2.6c0-1.8-0.7-2.7-2-2.7c-0.7,0-1.2,0.2-1.5,0.7C568.8,260.1,568.6,260.8,568.6,261.7z"/>
		<path d="M578.9,261.2h3.1v4.1c-0.5,0.2-1,0.3-1.4,0.3c-0.4,0.1-0.9,0.1-1.4,0.1c-1.2,0-2.1-0.3-2.7-1c-0.6-0.7-0.9-1.7-0.9-3
			c0-1.3,0.4-2.3,1.1-3c0.7-0.7,1.7-1.1,3-1.1c0.8,0,1.6,0.2,2.3,0.5l-0.6,1.3c-0.6-0.3-1.2-0.4-1.8-0.4c-0.7,0-1.3,0.2-1.7,0.7
			c-0.4,0.5-0.7,1.1-0.7,1.9c0,0.9,0.2,1.5,0.5,2c0.3,0.4,0.9,0.7,1.5,0.7c0.3,0,0.7,0,1.1-0.1v-1.6h-1.5V261.2z"/>
		<path d="M585.6,262.6v3h-1.7v-7.9h2.3c1.1,0,1.9,0.2,2.4,0.6s0.8,1,0.8,1.8c0,0.5-0.1,0.9-0.4,1.2c-0.3,0.4-0.6,0.6-1.1,0.8
			c1.2,1.8,2,2.9,2.3,3.4h-1.8l-1.9-3H585.6z M585.6,261.3h0.5c0.5,0,0.9-0.1,1.2-0.3c0.3-0.2,0.4-0.5,0.4-0.8
			c0-0.4-0.1-0.6-0.4-0.8c-0.3-0.2-0.7-0.2-1.2-0.2h-0.5V261.3z"/>
		<path d="M596,265.6l-0.6-1.9h-2.9l-0.6,1.9h-1.8l2.8-7.9h2l2.8,7.9H596z M595,262.4c-0.5-1.7-0.8-2.7-0.9-2.9s-0.1-0.4-0.1-0.5
			c-0.1,0.5-0.5,1.6-1,3.4H595z"/>
		<path d="M602.1,265.6l-1.9-6.2h0c0.1,1.3,0.1,2.1,0.1,2.5v3.7h-1.5v-7.9h2.3l1.9,6h0l2-6h2.3v7.9h-1.6v-3.7c0-0.2,0-0.4,0-0.6
			c0-0.2,0-0.8,0.1-1.8h0l-2,6.1H602.1z"/>
		<path d="M613.9,265.6l-0.6-1.9h-2.9l-0.6,1.9h-1.8l2.8-7.9h2l2.8,7.9H613.9z M613,262.4c-0.5-1.7-0.8-2.7-0.9-2.9
			s-0.1-0.4-0.1-0.5c-0.1,0.5-0.5,1.6-1,3.4H613z"/>
		<path d="M620.1,259c-0.6,0-1.1,0.2-1.5,0.7s-0.5,1.1-0.5,2c0,1.8,0.7,2.6,2,2.6c0.6,0,1.2-0.1,2-0.4v1.4c-0.6,0.3-1.4,0.4-2.2,0.4
			c-1.1,0-2-0.3-2.6-1s-0.9-1.7-0.9-3c0-0.8,0.1-1.5,0.4-2.1c0.3-0.6,0.7-1.1,1.3-1.4c0.6-0.3,1.2-0.5,2-0.5c0.8,0,1.5,0.2,2.3,0.6
			l-0.5,1.4c-0.3-0.1-0.6-0.3-0.9-0.4C620.6,259.1,620.4,259,620.1,259z M620.9,267c0,0.5-0.1,0.8-0.4,1c-0.3,0.2-0.7,0.3-1.3,0.3
			c-0.3,0-0.5,0-0.8-0.1v-0.9c0.1,0,0.2,0,0.4,0.1c0.2,0,0.3,0,0.4,0c0.3,0,0.4-0.1,0.4-0.3c0-0.3-0.3-0.5-0.9-0.6l0.4-0.8h1
			L620,266c0.3,0.1,0.5,0.2,0.6,0.4C620.8,266.5,620.9,266.7,620.9,267z"/>
		<path d="M628.5,265.6l-0.6-1.9h-2.9l-0.6,1.9h-1.8l2.8-7.9h2l2.8,7.9H628.5z M625.7,256.6c-0.1,0-0.2,0-0.3,0.1
			c-0.1,0.1-0.2,0.2-0.2,0.4h-0.8c0-0.5,0.2-0.9,0.4-1.2c0.3-0.3,0.6-0.4,1-0.4c0.1,0,0.3,0,0.4,0.1c0.1,0.1,0.3,0.1,0.4,0.2
			c0.1,0.1,0.3,0.1,0.4,0.2c0.1,0.1,0.3,0.1,0.4,0.1c0.1,0,0.2,0,0.3-0.1c0.1-0.1,0.2-0.2,0.2-0.4h0.8c0,0.5-0.2,0.9-0.4,1.2
			s-0.6,0.4-1,0.4c-0.1,0-0.3,0-0.4-0.1c-0.1-0.1-0.3-0.1-0.4-0.2c-0.1-0.1-0.3-0.1-0.4-0.2C625.9,256.6,625.8,256.6,625.7,256.6z
			 M627.6,262.4c-0.5-1.7-0.8-2.7-0.9-2.9c-0.1-0.2-0.1-0.4-0.1-0.5c-0.1,0.5-0.5,1.6-1,3.4H627.6z"/>
		<path d="M638.5,261.7c0,1.3-0.3,2.3-1,3s-1.6,1-2.8,1s-2.1-0.3-2.8-1s-1-1.7-1-3s0.3-2.3,1-3c0.6-0.7,1.6-1,2.8-1
			c1.2,0,2.1,0.3,2.8,1C638.1,259.4,638.5,260.4,638.5,261.7z M632.7,261.7c0,0.9,0.2,1.5,0.5,2c0.3,0.4,0.8,0.7,1.5,0.7
			c1.3,0,2-0.9,2-2.6c0-1.8-0.7-2.7-2-2.7c-0.7,0-1.2,0.2-1.5,0.7C632.9,260.1,632.7,260.8,632.7,261.7z"/>
		<path d="M556.6,287.9h2.7v3.8c-0.4,0.1-0.8,0.2-1.3,0.3c-0.4,0.1-0.9,0.1-1.5,0.1c-1.2,0-2.1-0.4-2.8-1.1s-1-1.7-1-3
			c0-0.8,0.2-1.5,0.5-2.1c0.3-0.6,0.8-1.1,1.4-1.4c0.6-0.3,1.3-0.5,2.2-0.5c0.8,0,1.6,0.2,2.3,0.5l-0.4,0.8c-0.7-0.3-1.4-0.5-2-0.5
			c-1,0-1.7,0.3-2.2,0.9s-0.8,1.4-0.8,2.4c0,1.1,0.3,1.9,0.8,2.4c0.5,0.5,1.3,0.8,2.3,0.8c0.5,0,1.1-0.1,1.6-0.2v-2.4h-1.8V287.9z"
			/>
		<path d="M563.7,286c0.3,0,0.5,0,0.7,0.1l-0.1,0.8c-0.2-0.1-0.5-0.1-0.6-0.1c-0.5,0-0.9,0.2-1.2,0.6s-0.5,0.9-0.5,1.4v3.2H561v-5.9
			h0.7l0.1,1.1h0c0.2-0.4,0.5-0.7,0.8-0.9S563.3,286,563.7,286z"/>
		<path d="M569.1,292l-0.2-0.8h0c-0.3,0.4-0.6,0.6-0.9,0.7c-0.3,0.1-0.7,0.2-1.1,0.2c-0.6,0-1-0.2-1.4-0.5c-0.3-0.3-0.5-0.7-0.5-1.3
			c0-1.2,1-1.8,2.9-1.9l1,0v-0.4c0-0.5-0.1-0.8-0.3-1c-0.2-0.2-0.5-0.3-1-0.3c-0.5,0-1,0.2-1.7,0.5l-0.3-0.7c0.3-0.2,0.6-0.3,1-0.4
			c0.3-0.1,0.7-0.1,1-0.1c0.7,0,1.2,0.2,1.6,0.5c0.3,0.3,0.5,0.8,0.5,1.5v4H569.1z M567.1,291.4c0.6,0,1-0.2,1.3-0.5
			c0.3-0.3,0.5-0.7,0.5-1.3v-0.5l-0.9,0c-0.7,0-1.2,0.1-1.5,0.3c-0.3,0.2-0.5,0.5-0.5,0.9c0,0.3,0.1,0.6,0.3,0.7
			C566.5,291.3,566.7,291.4,567.1,291.4z"/>
		<path d="M575.4,290.4c0,0.5-0.2,1-0.6,1.3c-0.4,0.3-1,0.4-1.7,0.4c-0.8,0-1.4-0.1-1.8-0.4v-0.8c0.3,0.1,0.6,0.3,0.9,0.3
			s0.6,0.1,0.9,0.1c0.5,0,0.8-0.1,1.1-0.2c0.3-0.1,0.4-0.4,0.4-0.7c0-0.2-0.1-0.4-0.3-0.6c-0.2-0.2-0.6-0.4-1.2-0.6
			c-0.5-0.2-0.9-0.4-1.2-0.5c-0.2-0.2-0.4-0.3-0.5-0.5c-0.1-0.2-0.2-0.4-0.2-0.7c0-0.5,0.2-0.9,0.6-1.1c0.4-0.3,0.9-0.4,1.6-0.4
			c0.6,0,1.3,0.1,1.9,0.4l-0.3,0.7c-0.6-0.2-1.1-0.4-1.6-0.4c-0.4,0-0.7,0.1-1,0.2s-0.3,0.3-0.3,0.5c0,0.2,0,0.3,0.1,0.4
			c0.1,0.1,0.2,0.2,0.4,0.3c0.2,0.1,0.5,0.2,1,0.4c0.7,0.3,1.2,0.5,1.4,0.8C575.3,289.7,575.4,290,575.4,290.4z"/>
		<path d="M580.6,290.4c0,0.5-0.2,1-0.6,1.3c-0.4,0.3-1,0.4-1.7,0.4c-0.8,0-1.4-0.1-1.8-0.4v-0.8c0.3,0.1,0.6,0.3,0.9,0.3
			c0.3,0.1,0.6,0.1,0.9,0.1c0.5,0,0.8-0.1,1.1-0.2s0.4-0.4,0.4-0.7c0-0.2-0.1-0.4-0.3-0.6c-0.2-0.2-0.6-0.4-1.2-0.6
			c-0.5-0.2-0.9-0.4-1.2-0.5s-0.4-0.3-0.5-0.5s-0.2-0.4-0.2-0.7c0-0.5,0.2-0.9,0.6-1.1s0.9-0.4,1.6-0.4c0.6,0,1.3,0.1,1.9,0.4
			l-0.3,0.7c-0.6-0.2-1.1-0.4-1.6-0.4c-0.4,0-0.7,0.1-1,0.2s-0.3,0.3-0.3,0.5c0,0.2,0,0.3,0.1,0.4c0.1,0.1,0.2,0.2,0.4,0.3
			s0.5,0.2,1,0.4c0.7,0.3,1.2,0.5,1.4,0.8C580.5,289.7,580.6,290,580.6,290.4z"/>
		<path d="M586.1,292v-3.8c0-0.5-0.1-0.8-0.3-1.1c-0.2-0.2-0.6-0.4-1-0.4c-0.6,0-1.1,0.2-1.4,0.5c-0.3,0.3-0.4,0.9-0.4,1.7v3.1h-0.9
			v-8.4h0.9v2.5c0,0.3,0,0.6,0,0.8h0.1c0.2-0.3,0.4-0.5,0.7-0.7s0.7-0.2,1.1-0.2c0.7,0,1.3,0.2,1.6,0.5c0.4,0.3,0.5,0.9,0.5,1.6v3.8
			H586.1z"/>
		<path d="M593.9,289.1c0,1-0.2,1.7-0.7,2.2s-1.2,0.8-2,0.8c-0.5,0-1-0.1-1.4-0.4c-0.4-0.2-0.7-0.6-0.9-1.1c-0.2-0.5-0.3-1-0.3-1.6
			c0-1,0.2-1.7,0.7-2.2s1.1-0.8,2-0.8c0.8,0,1.5,0.3,2,0.8C593.7,287.4,593.9,288.1,593.9,289.1z M589.4,289.1
			c0,0.8,0.2,1.3,0.5,1.7c0.3,0.4,0.7,0.6,1.3,0.6c0.6,0,1-0.2,1.3-0.6c0.3-0.4,0.5-1,0.5-1.7c0-0.7-0.2-1.3-0.5-1.7
			c-0.3-0.4-0.7-0.6-1.3-0.6c-0.6,0-1,0.2-1.3,0.6C589.6,287.7,589.4,288.3,589.4,289.1z"/>
		<path d="M598.2,292.1c-0.4,0-0.7-0.1-1-0.2c-0.3-0.1-0.6-0.4-0.8-0.7h-0.1c0,0.3,0.1,0.7,0.1,1v2.4h-0.9v-8.5h0.7l0.1,0.8h0
			c0.2-0.3,0.5-0.6,0.8-0.7c0.3-0.1,0.7-0.2,1-0.2c0.8,0,1.4,0.3,1.8,0.8c0.4,0.5,0.6,1.3,0.6,2.2c0,1-0.2,1.7-0.6,2.3
			C599.6,291.9,599,292.1,598.2,292.1z M598.1,286.8c-0.6,0-1,0.2-1.3,0.5c-0.3,0.3-0.4,0.9-0.4,1.6v0.2c0,0.8,0.1,1.4,0.4,1.8
			c0.3,0.4,0.7,0.5,1.3,0.5c0.5,0,0.9-0.2,1.2-0.6s0.4-1,0.4-1.7c0-0.7-0.1-1.3-0.4-1.7C599,287,598.6,286.8,598.1,286.8z"/>
		<path d="M605,292.1c-0.4,0-0.7-0.1-1.1-0.2s-0.6-0.4-0.8-0.7h-0.1c0,0.3,0.1,0.7,0.1,1v2.4h-0.9v-8.5h0.7l0.1,0.8h0
			c0.2-0.3,0.5-0.6,0.8-0.7s0.7-0.2,1-0.2c0.8,0,1.4,0.3,1.8,0.8c0.4,0.5,0.6,1.3,0.6,2.2c0,1-0.2,1.7-0.6,2.3
			C606.3,291.9,605.7,292.1,605,292.1z M604.8,286.8c-0.6,0-1,0.2-1.3,0.5s-0.4,0.9-0.4,1.6v0.2c0,0.8,0.1,1.4,0.4,1.8
			c0.3,0.4,0.7,0.5,1.3,0.5c0.5,0,0.9-0.2,1.2-0.6c0.3-0.4,0.4-1,0.4-1.7c0-0.7-0.1-1.3-0.4-1.7C605.8,287,605.4,286.8,604.8,286.8z
			"/>
		<path d="M611.5,292.1c-0.9,0-1.6-0.3-2.1-0.8c-0.5-0.5-0.8-1.3-0.8-2.2c0-0.9,0.2-1.7,0.7-2.3c0.5-0.6,1.1-0.8,1.9-0.8
			c0.7,0,1.3,0.2,1.8,0.7s0.6,1.1,0.6,1.9v0.6h-4.1c0,0.7,0.2,1.2,0.5,1.6c0.3,0.4,0.8,0.5,1.4,0.5c0.6,0,1.3-0.1,1.9-0.4v0.8
			c-0.3,0.1-0.6,0.2-0.9,0.3C612.2,292.1,611.9,292.1,611.5,292.1z M611.2,286.8c-0.5,0-0.8,0.2-1.1,0.5c-0.3,0.3-0.4,0.7-0.5,1.3
			h3.1c0-0.6-0.1-1-0.4-1.3S611.7,286.8,611.2,286.8z"/>
		<path d="M617.8,286c0.3,0,0.5,0,0.7,0.1l-0.1,0.8c-0.2-0.1-0.5-0.1-0.6-0.1c-0.5,0-0.9,0.2-1.2,0.6c-0.3,0.4-0.5,0.9-0.5,1.4v3.2
			h-0.9v-5.9h0.7l0.1,1.1h0c0.2-0.4,0.5-0.7,0.8-0.9S617.5,286,617.8,286z"/>
		<path d="M556.5,298.1c-0.9,0-1.5,0.3-2,0.9c-0.5,0.6-0.7,1.4-0.7,2.4c0,1,0.2,1.8,0.7,2.4s1.2,0.8,2.1,0.8c0.5,0,1.2-0.1,1.9-0.3
			v0.8c-0.5,0.2-1.2,0.3-2,0.3c-1.2,0-2-0.4-2.7-1.1c-0.6-0.7-0.9-1.7-0.9-3c0-0.8,0.2-1.5,0.5-2.1c0.3-0.6,0.7-1.1,1.3-1.4
			c0.6-0.3,1.2-0.5,2-0.5c0.8,0,1.5,0.2,2.2,0.5l-0.4,0.8C557.7,298.2,557.1,298.1,556.5,298.1z"/>
		<path d="M564.5,303.1c0,0.7-0.3,1.2-0.8,1.6s-1.2,0.6-2,0.6c-0.9,0-1.6-0.1-2.1-0.4v-0.9c0.3,0.1,0.7,0.2,1.1,0.3
			c0.4,0.1,0.8,0.1,1.1,0.1c0.6,0,1.1-0.1,1.4-0.3c0.3-0.2,0.5-0.6,0.5-1c0-0.3-0.1-0.5-0.2-0.7c-0.1-0.2-0.3-0.3-0.5-0.5
			c-0.3-0.1-0.6-0.3-1.2-0.5c-0.7-0.3-1.3-0.6-1.6-0.9c-0.3-0.4-0.5-0.8-0.5-1.4c0-0.6,0.2-1.1,0.7-1.4c0.5-0.4,1.1-0.5,1.8-0.5
			c0.8,0,1.5,0.1,2.2,0.4l-0.3,0.8c-0.6-0.3-1.3-0.4-1.9-0.4c-0.5,0-0.9,0.1-1.1,0.3c-0.3,0.2-0.4,0.5-0.4,0.9
			c0,0.3,0.1,0.5,0.2,0.7c0.1,0.2,0.3,0.3,0.5,0.5c0.2,0.1,0.6,0.3,1.1,0.5c0.8,0.3,1.4,0.6,1.7,0.9
			C564.3,302.2,564.5,302.6,564.5,303.1z"/>
		<path d="M570.5,303.1c0,0.7-0.3,1.2-0.8,1.6s-1.2,0.6-2,0.6c-0.9,0-1.6-0.1-2.1-0.4v-0.9c0.3,0.1,0.7,0.2,1.1,0.3
			c0.4,0.1,0.8,0.1,1.1,0.1c0.6,0,1.1-0.1,1.4-0.3c0.3-0.2,0.5-0.6,0.5-1c0-0.3-0.1-0.5-0.2-0.7c-0.1-0.2-0.3-0.3-0.5-0.5
			c-0.3-0.1-0.6-0.3-1.2-0.5c-0.7-0.3-1.3-0.6-1.6-0.9c-0.3-0.4-0.5-0.8-0.5-1.4c0-0.6,0.2-1.1,0.7-1.4c0.5-0.4,1.1-0.5,1.8-0.5
			c0.8,0,1.5,0.1,2.2,0.4l-0.3,0.8c-0.6-0.3-1.3-0.4-1.9-0.4c-0.5,0-0.9,0.1-1.1,0.3c-0.3,0.2-0.4,0.5-0.4,0.9
			c0,0.3,0.1,0.5,0.2,0.7c0.1,0.2,0.3,0.3,0.5,0.5c0.2,0.1,0.6,0.3,1.1,0.5c0.8,0.3,1.4,0.6,1.7,0.9
			C570.4,302.2,570.5,302.6,570.5,303.1z"/>
		<path d="M559.1,318.4h-0.9v-3.7H554v3.7h-0.9v-7.9h0.9v3.3h4.1v-3.3h0.9V318.4z"/>
		<path d="M563.7,318.4h-0.9v-7h-2.5v-0.8h5.9v0.8h-2.5V318.4z"/>
		<path d="M570.8,318.4l-2.7-7h0c0,0.6,0.1,1.2,0.1,2v5h-0.8v-7.9h1.4l2.5,6.5h0l2.5-6.5h1.4v7.9h-0.9v-5.1c0-0.6,0-1.2,0.1-1.9h0
			l-2.7,7H570.8z"/>
		<path d="M577.3,318.4v-7.9h0.9v7h3.5v0.8H577.3z"/>
		<path d="M552,333.7c-0.3,0-0.6,0-0.8-0.1v-0.8c0.3,0.1,0.5,0.1,0.8,0.1c0.4,0,0.6-0.1,0.8-0.3s0.3-0.5,0.3-0.9v-7.9h0.9v7.8
			c0,0.7-0.2,1.2-0.5,1.6C553.1,333.5,552.6,333.7,552,333.7z"/>
		<path d="M559.5,331.6l-0.2-0.8h0c-0.3,0.4-0.6,0.6-0.9,0.8c-0.3,0.1-0.7,0.2-1.1,0.2c-0.6,0-1-0.2-1.4-0.5
			c-0.3-0.3-0.5-0.7-0.5-1.3c0-1.2,1-1.8,2.9-1.9l1,0v-0.4c0-0.5-0.1-0.8-0.3-1c-0.2-0.2-0.5-0.3-1-0.3c-0.5,0-1,0.2-1.7,0.5
			l-0.3-0.7c0.3-0.2,0.6-0.3,1-0.4c0.3-0.1,0.7-0.1,1-0.1c0.7,0,1.2,0.2,1.6,0.5c0.3,0.3,0.5,0.8,0.5,1.5v4H559.5z M557.5,331
			c0.6,0,1-0.2,1.3-0.5c0.3-0.3,0.5-0.7,0.5-1.3v-0.5l-0.9,0c-0.7,0-1.2,0.1-1.5,0.3c-0.3,0.2-0.5,0.5-0.5,0.9
			c0,0.3,0.1,0.6,0.3,0.7C556.9,330.9,557.2,331,557.5,331z"/>
		<path d="M563.3,331.6l-2.2-5.9h1l1.3,3.5c0.3,0.8,0.5,1.3,0.5,1.6h0c0-0.2,0.2-0.6,0.4-1.2c0.2-0.6,0.7-1.9,1.4-3.9h1l-2.2,5.9
			H563.3z"/>
		<path d="M571.2,331.6l-0.2-0.8h0c-0.3,0.4-0.6,0.6-0.9,0.8s-0.7,0.2-1.1,0.2c-0.6,0-1-0.2-1.4-0.5s-0.5-0.7-0.5-1.3
			c0-1.2,1-1.8,2.9-1.9l1,0v-0.4c0-0.5-0.1-0.8-0.3-1c-0.2-0.2-0.5-0.3-1-0.3c-0.5,0-1,0.2-1.7,0.5l-0.3-0.7c0.3-0.2,0.6-0.3,1-0.4
			c0.3-0.1,0.7-0.1,1-0.1c0.7,0,1.2,0.2,1.6,0.5c0.3,0.3,0.5,0.8,0.5,1.5v4H571.2z M569.2,331c0.6,0,1-0.2,1.3-0.5
			c0.3-0.3,0.5-0.7,0.5-1.3v-0.5l-0.9,0c-0.7,0-1.2,0.1-1.5,0.3c-0.3,0.2-0.5,0.5-0.5,0.9c0,0.3,0.1,0.6,0.3,0.7
			C568.5,330.9,568.8,331,569.2,331z"/>
		<path d="M578.2,329.5c0,0.7-0.3,1.2-0.8,1.6c-0.5,0.4-1.2,0.6-2,0.6c-0.9,0-1.6-0.1-2.1-0.4v-0.9c0.3,0.1,0.7,0.2,1.1,0.3
			c0.4,0.1,0.8,0.1,1.1,0.1c0.6,0,1.1-0.1,1.4-0.3c0.3-0.2,0.5-0.6,0.5-1c0-0.3-0.1-0.5-0.2-0.7c-0.1-0.2-0.3-0.3-0.5-0.5
			s-0.6-0.3-1.2-0.5c-0.7-0.3-1.3-0.6-1.6-0.9c-0.3-0.4-0.5-0.8-0.5-1.4c0-0.6,0.2-1.1,0.7-1.4c0.5-0.4,1.1-0.5,1.8-0.5
			c0.8,0,1.5,0.1,2.2,0.4l-0.3,0.8c-0.6-0.3-1.3-0.4-1.9-0.4c-0.5,0-0.9,0.1-1.1,0.3s-0.4,0.5-0.4,0.9c0,0.3,0,0.5,0.2,0.7
			c0.1,0.2,0.3,0.3,0.5,0.5c0.2,0.1,0.6,0.3,1.1,0.5c0.8,0.3,1.4,0.6,1.7,0.9C578.1,328.6,578.2,329,578.2,329.5z"/>
		<path d="M582.1,331.7c-0.9,0-1.5-0.3-2-0.8c-0.5-0.5-0.7-1.3-0.7-2.2c0-1,0.2-1.7,0.7-2.3c0.5-0.5,1.2-0.8,2-0.8
			c0.3,0,0.6,0,0.8,0.1s0.5,0.1,0.7,0.2l-0.3,0.8c-0.2-0.1-0.4-0.1-0.6-0.2c-0.2-0.1-0.4-0.1-0.6-0.1c-1.2,0-1.8,0.8-1.8,2.3
			c0,0.7,0.1,1.3,0.4,1.7c0.3,0.4,0.7,0.6,1.3,0.6c0.5,0,1-0.1,1.5-0.3v0.8C583.2,331.6,582.7,331.7,582.1,331.7z"/>
		<path d="M587.6,325.6c0.3,0,0.5,0,0.7,0.1l-0.1,0.8c-0.2-0.1-0.5-0.1-0.6-0.1c-0.5,0-0.9,0.2-1.2,0.6c-0.3,0.4-0.5,0.9-0.5,1.4
			v3.2h-0.9v-5.9h0.7l0.1,1.1h0c0.2-0.4,0.5-0.7,0.8-0.9C586.9,325.7,587.3,325.6,587.6,325.6z"/>
		<path d="M589.4,324.1c0-0.2,0-0.4,0.2-0.4c0.1-0.1,0.2-0.1,0.4-0.1c0.1,0,0.3,0,0.4,0.1c0.1,0.1,0.2,0.2,0.2,0.4s-0.1,0.4-0.2,0.4
			c-0.1,0.1-0.2,0.1-0.4,0.1c-0.2,0-0.3,0-0.4-0.1C589.4,324.5,589.4,324.3,589.4,324.1z M590.3,331.6h-0.9v-5.9h0.9V331.6z"/>
		<path d="M595,331.7c-0.4,0-0.7-0.1-1-0.2c-0.3-0.1-0.6-0.4-0.8-0.7H593c0,0.3,0.1,0.7,0.1,1v2.4h-0.9v-8.5h0.7l0.1,0.8h0
			c0.2-0.3,0.5-0.6,0.8-0.7c0.3-0.1,0.7-0.2,1-0.2c0.8,0,1.4,0.3,1.8,0.8c0.4,0.5,0.6,1.3,0.6,2.2c0,1-0.2,1.7-0.6,2.3
			S595.7,331.7,595,331.7z M594.8,326.4c-0.6,0-1,0.2-1.3,0.5c-0.3,0.3-0.4,0.9-0.4,1.6v0.2c0,0.8,0.1,1.4,0.4,1.8
			c0.3,0.4,0.7,0.5,1.3,0.5c0.5,0,0.9-0.2,1.2-0.6c0.3-0.4,0.4-1,0.4-1.7c0-0.7-0.1-1.3-0.4-1.7
			C595.8,326.6,595.4,326.4,594.8,326.4z"/>
		<path d="M600.9,331c0.2,0,0.3,0,0.5,0c0.1,0,0.3,0,0.3-0.1v0.7c-0.1,0-0.2,0.1-0.4,0.1c-0.2,0-0.4,0-0.5,0c-1.1,0-1.7-0.6-1.7-1.8
			v-3.5h-0.8V326l0.8-0.4l0.4-1.3h0.5v1.4h1.7v0.7h-1.7v3.5c0,0.4,0.1,0.6,0.3,0.8C600.3,330.9,600.6,331,600.9,331z"/>
		<path d="M558.1,339.3c0,0.8-0.3,1.4-0.8,1.8c-0.5,0.4-1.3,0.6-2.3,0.6H554v3.1h-0.9V337h2C557.1,337,558.1,337.7,558.1,339.3z
			 M554,341h0.8c0.8,0,1.4-0.1,1.8-0.4c0.4-0.3,0.5-0.7,0.5-1.3c0-0.5-0.2-0.9-0.5-1.2c-0.3-0.3-0.9-0.4-1.6-0.4h-1V341z"/>
		<path d="M558.7,338.9h1l1.3,3.4c0.3,0.8,0.5,1.3,0.5,1.7h0c0-0.2,0.1-0.5,0.3-0.9c0.1-0.4,0.6-1.8,1.5-4.1h1l-2.5,6.7
			c-0.3,0.7-0.5,1.1-0.9,1.4c-0.3,0.3-0.7,0.4-1.2,0.4c-0.3,0-0.5,0-0.8-0.1v-0.7c0.2,0,0.4,0.1,0.7,0.1c0.6,0,1-0.3,1.3-1l0.3-0.8
			L558.7,338.9z"/>
		<path d="M567.1,344.2c0.2,0,0.3,0,0.5,0s0.3,0,0.3-0.1v0.7c-0.1,0-0.2,0.1-0.4,0.1c-0.2,0-0.4,0-0.5,0c-1.1,0-1.7-0.6-1.7-1.8
			v-3.5h-0.8v-0.4l0.8-0.4l0.4-1.3h0.5v1.4h1.7v0.7h-1.7v3.5c0,0.4,0.1,0.6,0.3,0.8C566.5,344.1,566.8,344.2,567.1,344.2z"/>
		<path d="M573.1,344.8V341c0-0.5-0.1-0.8-0.3-1.1c-0.2-0.2-0.6-0.4-1-0.4c-0.6,0-1.1,0.2-1.4,0.5c-0.3,0.3-0.4,0.9-0.4,1.7v3.1H569
			v-8.4h0.9v2.5c0,0.3,0,0.6,0,0.8h0.1c0.2-0.3,0.4-0.5,0.7-0.7c0.3-0.2,0.7-0.2,1.1-0.2c0.7,0,1.3,0.2,1.6,0.5
			c0.4,0.3,0.5,0.9,0.5,1.6v3.8H573.1z"/>
		<path d="M580.9,341.9c0,1-0.2,1.7-0.7,2.2s-1.2,0.8-2,0.8c-0.5,0-1-0.1-1.4-0.4s-0.7-0.6-0.9-1.1s-0.3-1-0.3-1.6
			c0-1,0.2-1.7,0.7-2.2s1.1-0.8,2-0.8c0.8,0,1.5,0.3,2,0.8C580.6,340.2,580.9,340.9,580.9,341.9z M576.4,341.9
			c0,0.8,0.2,1.3,0.5,1.7s0.7,0.6,1.3,0.6c0.6,0,1-0.2,1.3-0.6c0.3-0.4,0.5-1,0.5-1.7c0-0.7-0.2-1.3-0.5-1.7
			c-0.3-0.4-0.7-0.6-1.3-0.6c-0.6,0-1,0.2-1.3,0.6C576.5,340.5,576.4,341.1,576.4,341.9z"/>
		<path d="M586.5,344.8V341c0-0.5-0.1-0.8-0.3-1.1c-0.2-0.2-0.6-0.4-1-0.4c-0.6,0-1.1,0.2-1.4,0.5c-0.3,0.3-0.4,0.9-0.4,1.6v3.1
			h-0.9v-5.9h0.7l0.1,0.8h0c0.2-0.3,0.4-0.5,0.8-0.7c0.3-0.2,0.7-0.2,1.1-0.2c0.7,0,1.2,0.2,1.6,0.5c0.4,0.3,0.5,0.9,0.5,1.6v3.8
			H586.5z"/>
		<path d="M554,354.8v3.3h-0.9v-7.9h2.2c1,0,1.7,0.2,2.1,0.6c0.5,0.4,0.7,0.9,0.7,1.7c0,1-0.5,1.7-1.6,2.1l2.1,3.5h-1.1l-1.9-3.3
			H554z M554,354h1.3c0.6,0,1.1-0.1,1.4-0.4s0.5-0.6,0.5-1.2c0-0.5-0.2-0.9-0.5-1.1c-0.3-0.2-0.8-0.3-1.5-0.3H554V354z"/>
	</g>
</g>
</svg>
