<?xml version="1.0" encoding="utf-8"?>
<!-- Generator: Adobe Illustrator 26.5.3, SVG Export Plug-In . SVG Version: 6.00 Build 0)  -->
<svg version="1.1" xmlns="http://www.w3.org/2000/svg" xmlns:xlink="http://www.w3.org/1999/xlink" x="0px" y="0px"
	 viewBox="0 0 663.5 517.2" style="enable-background:new 0 0 663.5 517.2;" xml:space="preserve">
<style type="text/css">
	.st0{display:none;}
	.st1{display:inline;fill:#FFFFFF;}
	.st2{fill:none;stroke:#B3B3B3;stroke-miterlimit:10;}
	.st3{fill:none;}
	.st4{font-family:'OpenSans-Bold';}
	.st5{font-size:18px;}
	.st6{font-family:'OpenSans-Regular';}
	.st7{font-size:14px;}
	.st8{font-size:11px;}
</style>
<g id="Camada_1" class="st0">
	
		<image style="display:inline;overflow:visible;" width="1366" height="768" xlink:href="74ED2A8C.jpg"  transform="matrix(1 0 0 1 -363.3239 -169.1878)">
	</image>
	<rect x="-263.8" y="-8.7" class="st1" width="1123" height="566"/>
</g>
<g id="Camada_2">
	<circle class="st2" cx="324.2" cy="224.3" r="222"/>
	<circle class="st2" cx="131.2" cy="387.3" r="128"/>
	<circle class="st2" cx="522.2" cy="169.3" r="105"/>
	<circle class="st2" cx="580.7" cy="305.8" r="81.5"/>
</g>
<g id="Camada_3">
	<rect x="219" y="139.3" class="st3" width="191.5" height="235.2"/>
	<text transform="matrix(1 0 0 1 219.0423 152.9426)"><tspan x="0" y="0" class="st4 st5">ARCHITECTURE</tspan><tspan x="0" y="43.2" class="st6 st5">Revit</tspan><tspan x="0" y="64.8" class="st6 st5">Archicad</tspan><tspan x="0" y="86.4" class="st6 st5">AutoCAD</tspan></text>
	<rect x="486" y="107.3" class="st3" width="119.6" height="117.5"/>
	<text transform="matrix(1 0 0 1 486.0423 117.903)"><tspan x="0" y="0" class="st4 st7">3D</tspan><tspan x="0" y="33.6" class="st6 st7">SketchUp</tspan><tspan x="0" y="50.4" class="st6 st7">Rhino</tspan><tspan x="0" y="67.2" class="st6 st7">Twinmotion</tspan><tspan x="0" y="84" class="st6 st7">Lumion</tspan><tspan x="0" y="100.8" class="st6 st7">V-Ray</tspan></text>
	<rect x="48" y="335.3" class="st3" width="119.6" height="117.5"/>
	<text transform="matrix(1 0 0 1 48.0423 345.903)"><tspan x="0" y="0" class="st4 st7">DESIGN</tspan><tspan x="0" y="33.6" class="st6 st7">Photoshop</tspan><tspan x="0" y="50.4" class="st6 st7">Illustrator</tspan><tspan x="0" y="67.2" class="st6 st7">InDesign</tspan></text>
	<rect x="552" y="257.3" class="st3" width="119.6" height="129.5"/>
	<text transform="matrix(1 0 0 1 552.0423 265.6232)"><tspan x="0" y="0" class="st4 st8">CODING</tspan><tspan x="0" y="26.4" class="st6 st8">Grasshopper</tspan><tspan x="0" y="39.6" class="st6 st8">CSS</tspan><tspan x="0" y="52.8" class="st6 st8">HTML</tspan><tspan x="0" y="66" class="st6 st8">JavaScript</tspan><tspan x="0" y="79.2" class="st6 st8">Python</tspan><tspan x="0" y="92.4" class="st6 st8">R</tspan></text>
</g>
</svg>
