<?xml version="1.0" encoding="UTF-8"?>
<svg xmlns="http://www.w3.org/2000/svg" viewBox="0 0 1366 768">
  <defs>
    <style>
      .cls-1 {
        fill: none;
        stroke: #b3b3b3;
        stroke-miterlimit: 10;
      }
    </style>
  </defs>
  <g id="Camada_2" data-name="Camada 2">
    <circle class="cls-1" cx="687.5" cy="393.5" r="222"/>
    <circle class="cls-1" cx="494.5" cy="556.5" r="128"/>
    <circle class="cls-1" cx="885.5" cy="338.5" r="105"/>
    <circle class="cls-1" cx="944" cy="475" r="81.5"/>
  </g>
  <g id="Camada_3" data-name="Camada 3">
    <g>
      <path d="M591.85,322.13l-.93-3.06h-4.68l-.93,3.06h-2.94l4.54-12.9h3.33l4.55,12.9h-2.94Zm-1.58-5.34c-.86-2.77-1.35-4.34-1.45-4.7s-.19-.65-.23-.86c-.19,.75-.75,2.6-1.66,5.56h3.35Z"/>
      <path d="M599.13,317.2v4.93h-2.72v-12.85h3.74c1.75,0,3.04,.32,3.88,.95s1.26,1.6,1.26,2.9c0,.76-.21,1.43-.62,2.02s-1,1.05-1.77,1.38c1.93,2.89,3.19,4.75,3.78,5.6h-3.02l-3.07-4.93h-1.45Zm0-2.21h.88c.86,0,1.5-.14,1.91-.43s.62-.74,.62-1.35-.21-1.04-.63-1.3-1.07-.39-1.95-.39h-.83v3.47Z"/>
      <path d="M613.74,311.36c-1.03,0-1.82,.39-2.38,1.16s-.84,1.84-.84,3.22c0,2.87,1.08,4.3,3.23,4.3,.9,0,2-.23,3.28-.68v2.29c-1.05,.44-2.23,.66-3.53,.66-1.87,0-3.3-.57-4.29-1.7s-1.49-2.76-1.49-4.88c0-1.34,.24-2.51,.73-3.51s1.19-1.78,2.1-2.31,1.98-.8,3.2-.8,2.5,.3,3.76,.91l-.88,2.21c-.48-.23-.96-.43-1.45-.6s-.96-.25-1.43-.25Z"/>
      <path d="M630.28,322.13h-2.72v-5.55h-5.09v5.55h-2.72v-12.85h2.72v5.04h5.09v-5.04h2.72v12.85Z"/>
      <path d="M633.53,322.13v-12.85h2.72v12.85h-2.72Z"/>
      <path d="M644.44,322.13h-2.72v-10.58h-3.49v-2.27h9.7v2.27h-3.49v10.58Z"/>
      <path d="M657.31,322.13h-7.4v-12.85h7.4v2.23h-4.68v2.82h4.35v2.23h-4.35v3.31h4.68v2.25Z"/>
      <path d="M665.45,311.36c-1.03,0-1.82,.39-2.38,1.16s-.84,1.84-.84,3.22c0,2.87,1.08,4.3,3.23,4.3,.9,0,2-.23,3.28-.68v2.29c-1.05,.44-2.23,.66-3.53,.66-1.87,0-3.3-.57-4.29-1.7s-1.49-2.76-1.49-4.88c0-1.34,.24-2.51,.73-3.51s1.19-1.78,2.1-2.31,1.98-.8,3.2-.8,2.5,.3,3.76,.91l-.88,2.21c-.48-.23-.96-.43-1.45-.6s-.96-.25-1.43-.25Z"/>
      <path d="M676.42,322.13h-2.72v-10.58h-3.49v-2.27h9.7v2.27h-3.49v10.58Z"/>
      <path d="M692.34,309.28v8.31c0,.95-.21,1.78-.64,2.5-.43,.71-1.04,1.26-1.84,1.64s-1.75,.57-2.85,.57c-1.65,0-2.94-.42-3.85-1.27s-1.37-2.01-1.37-3.48v-8.28h2.72v7.87c0,.99,.2,1.72,.6,2.18s1.06,.69,1.98,.69,1.54-.23,1.94-.7,.6-1.2,.6-2.19v-7.85h2.72Z"/>
      <path d="M698.21,317.2v4.93h-2.72v-12.85h3.74c1.75,0,3.04,.32,3.88,.95s1.26,1.6,1.26,2.9c0,.76-.21,1.43-.62,2.02s-1,1.05-1.77,1.38c1.93,2.89,3.19,4.75,3.78,5.6h-3.02l-3.07-4.93h-1.45Zm0-2.21h.88c.86,0,1.5-.14,1.91-.43s.62-.74,.62-1.35-.21-1.04-.63-1.3c-.42-.26-1.07-.39-1.95-.39h-.83v3.47Z"/>
      <path d="M714.77,322.13h-7.4v-12.85h7.4v2.23h-4.68v2.82h4.35v2.23h-4.35v3.31h4.68v2.25Z"/>
      <path d="M585.63,359.99v5.34h-1.49v-12.85h3.52c1.58,0,2.74,.3,3.49,.91s1.13,1.51,1.13,2.72c0,1.7-.86,2.85-2.58,3.45l3.49,5.77h-1.77l-3.11-5.34h-2.68Zm0-1.28h2.05c1.05,0,1.83-.21,2.32-.63s.74-1.05,.74-1.89-.25-1.46-.75-1.84-1.31-.56-2.41-.56h-1.94v4.91Z"/>
      <path d="M599.11,365.51c-1.42,0-2.55-.43-3.37-1.3s-1.23-2.07-1.23-3.61,.38-2.79,1.15-3.7,1.79-1.37,3.08-1.37c1.21,0,2.16,.4,2.87,1.19s1.05,1.84,1.05,3.14v.92h-6.64c.03,1.13,.31,1.99,.86,2.58s1.31,.88,2.29,.88c1.04,0,2.06-.22,3.08-.65v1.3c-.52,.22-1,.38-1.46,.48s-1.02,.15-1.67,.15Zm-.4-8.76c-.77,0-1.39,.25-1.85,.76s-.73,1.2-.81,2.09h5.04c0-.92-.21-1.62-.62-2.11s-1-.73-1.76-.73Z"/>
      <path d="M607.25,365.33l-3.66-9.63h1.56l2.07,5.71c.47,1.34,.74,2.2,.83,2.6h.07c.06-.31,.27-.95,.61-1.93s1.11-3.1,2.31-6.39h1.56l-3.66,9.63h-1.71Z"/>
      <path d="M614.03,353.09c0-.33,.08-.58,.25-.73s.37-.23,.62-.23,.44,.08,.61,.24,.25,.4,.25,.73-.08,.57-.25,.73-.37,.24-.61,.24c-.25,0-.45-.08-.62-.24s-.25-.41-.25-.73Zm1.58,12.24h-1.46v-9.63h1.46v9.63Z"/>
      <path d="M621.82,364.3c.26,0,.51-.02,.75-.06s.43-.08,.57-.12v1.12c-.16,.08-.39,.14-.7,.19s-.58,.07-.83,.07c-1.86,0-2.79-.98-2.79-2.94v-5.73h-1.38v-.7l1.38-.61,.62-2.06h.84v2.23h2.79v1.13h-2.79v5.67c0,.58,.14,1.03,.41,1.34s.65,.47,1.13,.47Z"/>
      <path d="M592.21,386.93l-1.6-4.09h-5.15l-1.58,4.09h-1.51l5.08-12.9h1.26l5.05,12.9h-1.55Zm-2.07-5.43l-1.49-3.98c-.19-.5-.39-1.12-.6-1.85-.13,.56-.31,1.18-.55,1.85l-1.51,3.98h4.16Z"/>
      <path d="M599.7,377.12c.43,0,.81,.04,1.15,.11l-.2,1.35c-.4-.09-.75-.13-1.05-.13-.78,0-1.45,.32-2,.95s-.83,1.42-.83,2.36v5.17h-1.46v-9.63h1.2l.17,1.78h.07c.36-.63,.79-1.11,1.29-1.45s1.06-.51,1.66-.51Z"/>
      <path d="M606.5,387.11c-1.39,0-2.47-.43-3.24-1.29-.76-.86-1.15-2.07-1.15-3.64s.39-2.86,1.16-3.74,1.88-1.32,3.32-1.32c.46,0,.93,.05,1.39,.15s.83,.22,1.09,.35l-.45,1.24c-.32-.13-.67-.24-1.05-.32s-.72-.13-1.01-.13c-1.96,0-2.94,1.25-2.94,3.74,0,1.18,.24,2.09,.72,2.72s1.19,.95,2.12,.95c.8,0,1.63-.17,2.47-.52v1.29c-.64,.33-1.46,.5-2.43,.5Z"/>
      <path d="M617.81,386.93v-6.23c0-.79-.18-1.37-.54-1.76s-.92-.58-1.68-.58c-1.01,0-1.75,.28-2.22,.83s-.7,1.45-.7,2.71v5.04h-1.46v-13.68h1.46v4.14c0,.5-.02,.91-.07,1.24h.09c.29-.46,.7-.83,1.23-1.09s1.14-.4,1.81-.4c1.18,0,2.06,.28,2.65,.84s.88,1.45,.88,2.67v6.28h-1.46Z"/>
      <path d="M622.15,374.69c0-.33,.08-.58,.25-.73s.37-.23,.62-.23,.44,.08,.61,.24,.25,.4,.25,.73-.08,.57-.25,.73-.37,.24-.61,.24c-.25,0-.45-.08-.62-.24s-.25-.41-.25-.73Zm1.58,12.24h-1.46v-9.63h1.46v9.63Z"/>
      <path d="M630.67,387.11c-1.39,0-2.47-.43-3.24-1.29-.76-.86-1.15-2.07-1.15-3.64s.39-2.86,1.16-3.74,1.88-1.32,3.32-1.32c.46,0,.93,.05,1.39,.15s.83,.22,1.09,.35l-.45,1.24c-.32-.13-.67-.24-1.05-.32s-.72-.13-1.01-.13c-1.96,0-2.94,1.25-2.94,3.74,0,1.18,.24,2.09,.72,2.72s1.19,.95,2.12,.95c.8,0,1.63-.17,2.47-.52v1.29c-.64,.33-1.46,.5-2.43,.5Z"/>
      <path d="M641.31,386.93l-.29-1.37h-.07c-.48,.6-.96,1.01-1.44,1.23-.48,.21-1.07,.32-1.79,.32-.96,0-1.7-.25-2.25-.74s-.81-1.19-.81-2.1c0-1.95,1.56-2.96,4.67-3.06l1.63-.05v-.6c0-.76-.16-1.31-.49-1.67s-.85-.54-1.56-.54c-.8,0-1.71,.25-2.72,.74l-.45-1.12c.47-.26,.99-.46,1.56-.61s1.13-.22,1.7-.22c1.15,0,2,.25,2.55,.76s.83,1.33,.83,2.45v6.57h-1.08Zm-3.3-1.03c.91,0,1.62-.25,2.14-.75s.78-1.2,.78-2.09v-.87l-1.46,.06c-1.16,.04-2,.22-2.51,.54s-.77,.82-.77,1.49c0,.53,.16,.93,.48,1.2s.77,.41,1.34,.41Z"/>
      <path d="M651.96,385.64h-.08c-.67,.98-1.68,1.47-3.02,1.47-1.26,0-2.24-.43-2.94-1.29s-1.05-2.09-1.05-3.67,.35-2.82,1.05-3.7,1.68-1.32,2.94-1.32,2.31,.47,3.01,1.42h.11l-.06-.69-.04-.68v-3.92h1.46v13.68h-1.19l-.19-1.29Zm-2.92,.25c1,0,1.72-.27,2.17-.81,.45-.54,.67-1.42,.67-2.62v-.31c0-1.37-.23-2.34-.68-2.92s-1.18-.87-2.18-.87c-.86,0-1.51,.33-1.96,1s-.68,1.6-.68,2.82,.23,2.16,.68,2.79,1.11,.94,1.99,.94Z"/>
      <path d="M592.21,408.53l-1.6-4.09h-5.15l-1.58,4.09h-1.51l5.08-12.9h1.26l5.05,12.9h-1.55Zm-2.07-5.43l-1.49-3.98c-.19-.5-.39-1.12-.6-1.85-.13,.56-.31,1.18-.55,1.85l-1.51,3.98h4.16Z"/>
      <path d="M596.67,398.9v6.25c0,.79,.18,1.37,.54,1.76s.92,.58,1.68,.58c1.01,0,1.74-.28,2.21-.83s.7-1.45,.7-2.7v-5.06h1.46v9.63h-1.2l-.21-1.29h-.08c-.3,.47-.71,.84-1.24,1.09s-1.14,.38-1.81,.38c-1.17,0-2.05-.28-2.63-.84s-.87-1.45-.87-2.67v-6.3h1.48Z"/>
      <path d="M609.46,407.5c.26,0,.51-.02,.75-.06s.43-.08,.57-.12v1.12c-.16,.08-.39,.14-.7,.19s-.58,.08-.83,.08c-1.86,0-2.79-.98-2.79-2.95v-5.73h-1.38v-.7l1.38-.61,.62-2.06h.84v2.23h2.79v1.13h-2.79v5.67c0,.58,.14,1.03,.41,1.34s.65,.46,1.13,.46Z"/>
      <path d="M621.02,403.71c0,1.57-.4,2.8-1.19,3.68s-1.88,1.32-3.28,1.32c-.86,0-1.63-.2-2.29-.61s-1.18-.98-1.55-1.74-.54-1.64-.54-2.65c0-1.57,.39-2.79,1.18-3.67s1.88-1.31,3.27-1.31,2.42,.45,3.21,1.34,1.19,2.11,1.19,3.64Zm-7.34,0c0,1.23,.25,2.17,.74,2.81s1.22,.97,2.17,.97,1.68-.32,2.18-.96,.74-1.58,.74-2.82-.25-2.15-.74-2.79-1.23-.95-2.19-.95-1.68,.31-2.16,.94-.73,1.56-.73,2.8Z"/>
      <path d="M629.3,396.83c-1.41,0-2.53,.47-3.34,1.41s-1.23,2.23-1.23,3.86,.39,2.98,1.18,3.9,1.91,1.38,3.37,1.38c.9,0,1.92-.16,3.07-.48v1.31c-.89,.33-1.99,.5-3.3,.5-1.89,0-3.35-.57-4.38-1.72s-1.54-2.78-1.54-4.9c0-1.32,.25-2.48,.74-3.48s1.21-1.76,2.14-2.3,2.03-.81,3.3-.81c1.35,0,2.53,.25,3.53,.74l-.63,1.28c-.97-.46-1.95-.69-2.92-.69Z"/>
      <path d="M643.23,408.53l-1.6-4.09h-5.15l-1.58,4.09h-1.51l5.08-12.9h1.26l5.05,12.9h-1.55Zm-2.07-5.43l-1.49-3.98c-.19-.5-.39-1.12-.6-1.85-.13,.56-.31,1.18-.55,1.85l-1.51,3.98h4.16Z"/>
      <path d="M656.8,401.98c0,2.12-.58,3.74-1.73,4.87s-2.81,1.68-4.97,1.68h-3.56v-12.85h3.94c2,0,3.55,.55,4.66,1.66s1.66,2.65,1.66,4.64Zm-1.58,.05c0-1.68-.42-2.94-1.26-3.79s-2.09-1.28-3.75-1.28h-2.17v10.27h1.82c1.78,0,3.12-.44,4.02-1.31s1.34-2.17,1.34-3.89Z"/>
    </g>
    <g>
      <path d="M856.52,279.33c0,.62-.19,1.16-.57,1.59s-.91,.74-1.59,.9v.04c.81,.1,1.42,.35,1.83,.73s.62,.92,.62,1.58c0,.96-.35,1.71-1.05,2.25s-1.69,.8-2.99,.8c-1.08,0-2.05-.18-2.88-.54v-1.8c.39,.2,.81,.36,1.28,.48s.93,.18,1.38,.18c.7,0,1.21-.12,1.54-.36s.5-.62,.5-1.14c0-.47-.19-.8-.57-1s-.99-.29-1.83-.29h-.76v-1.62h.77c.77,0,1.34-.1,1.7-.3,.36-.2,.54-.55,.54-1.04,0-.76-.47-1.13-1.42-1.13-.33,0-.66,.05-1,.16-.34,.11-.72,.3-1.13,.57l-.98-1.46c.91-.66,2-.98,3.26-.98,1.04,0,1.85,.21,2.45,.63,.6,.42,.9,1,.9,1.75Z"/>
      <path d="M866.91,282c0,1.65-.47,2.91-1.41,3.78-.94,.88-2.29,1.31-4.06,1.31h-2.83v-9.99h3.14c1.63,0,2.9,.43,3.8,1.29s1.35,2.06,1.35,3.61Zm-2.2,.05c0-2.15-.95-3.22-2.84-3.22h-1.13v6.51h.91c2.04,0,3.06-1.1,3.06-3.29Z"/>
      <path d="M856.38,318.03c0,.88-.32,1.57-.96,2.06s-1.5,.74-2.6,.74c-1.18,0-2.1-.15-2.73-.46v-1.12c.41,.17,.86,.31,1.34,.41s.96,.15,1.44,.15c.77,0,1.36-.15,1.75-.44s.59-.7,.59-1.23c0-.35-.07-.63-.21-.85-.14-.22-.37-.42-.7-.61-.33-.19-.82-.4-1.49-.64-.93-.33-1.59-.73-1.99-1.18-.4-.46-.6-1.05-.6-1.78,0-.77,.29-1.38,.87-1.84s1.34-.68,2.3-.68,1.91,.18,2.74,.55l-.36,1.01c-.83-.35-1.63-.52-2.41-.52-.62,0-1.1,.13-1.44,.4s-.52,.63-.52,1.1c0,.35,.06,.63,.19,.85s.34,.42,.65,.61c.3,.18,.77,.39,1.39,.61,1.05,.37,1.77,.77,2.16,1.2,.39,.43,.59,.98,.59,1.67Z"/>
      <path d="M859.37,316.86c.2-.28,.5-.64,.9-1.09l2.42-2.56h1.35l-3.04,3.19,3.25,4.3h-1.37l-2.65-3.54-.85,.74v2.8h-1.12v-10.64h1.12v5.64c0,.25-.02,.64-.05,1.16h.05Z"/>
      <path d="M868.77,320.83c-1.11,0-1.98-.34-2.62-1.01-.64-.67-.96-1.61-.96-2.81s.3-2.17,.89-2.88c.6-.71,1.39-1.07,2.4-1.07,.94,0,1.68,.31,2.23,.93s.82,1.43,.82,2.44v.72h-5.16c.02,.88,.25,1.55,.67,2,.42,.46,1.01,.68,1.78,.68,.81,0,1.6-.17,2.39-.51v1.01c-.4,.17-.78,.3-1.14,.37-.36,.08-.79,.11-1.3,.11Zm-.31-6.82c-.6,0-1.08,.2-1.44,.59-.36,.39-.57,.93-.63,1.63h3.92c0-.72-.16-1.26-.48-1.64s-.78-.57-1.37-.57Z"/>
      <path d="M875.88,319.89c.2,0,.39-.01,.58-.04s.33-.06,.44-.09v.87c-.12,.06-.3,.11-.54,.15-.24,.04-.45,.06-.65,.06-1.45,0-2.17-.76-2.17-2.29v-4.46h-1.07v-.55l1.07-.47,.48-1.6h.66v1.74h2.17v.88h-2.17v4.41c0,.45,.11,.8,.32,1.04s.51,.36,.88,.36Z"/>
      <path d="M881.39,320.83c-1.08,0-1.92-.33-2.52-1-.59-.67-.89-1.61-.89-2.83s.3-2.22,.91-2.91c.6-.68,1.46-1.03,2.58-1.03,.36,0,.72,.04,1.08,.12s.64,.17,.85,.27l-.35,.96c-.25-.1-.52-.18-.82-.25s-.56-.1-.79-.1c-1.52,0-2.28,.97-2.28,2.91,0,.92,.19,1.63,.56,2.12,.37,.49,.92,.74,1.65,.74,.62,0,1.26-.13,1.92-.4v1c-.5,.26-1.13,.39-1.89,.39Z"/>
      <path d="M890.19,320.69v-4.85c0-.61-.14-1.07-.42-1.37s-.71-.45-1.31-.45c-.79,0-1.36,.21-1.73,.64-.36,.43-.54,1.13-.54,2.11v3.92h-1.13v-10.64h1.13v3.22c0,.39-.02,.71-.05,.96h.07c.22-.36,.54-.64,.95-.85,.41-.21,.88-.31,1.41-.31,.92,0,1.6,.22,2.06,.65,.46,.44,.69,1.13,.69,2.07v4.89h-1.13Z"/>
      <path d="M901.37,310.7v6.47c0,1.14-.34,2.03-1.03,2.69s-1.63,.98-2.84,.98-2.13-.33-2.79-.98c-.66-.66-.99-1.56-.99-2.71v-6.44h1.16v6.52c0,.83,.23,1.47,.68,1.92s1.12,.67,2.01,.67,1.49-.22,1.95-.67,.68-1.09,.68-1.93v-6.51h1.16Z"/>
      <path d="M907.33,320.83c-.49,0-.93-.09-1.34-.27-.4-.18-.74-.46-1.01-.83h-.08c.05,.44,.08,.85,.08,1.24v3.08h-1.13v-10.86h.92l.16,1.03h.05c.29-.41,.63-.71,1.02-.89s.83-.27,1.33-.27c.99,0,1.76,.34,2.3,1.02,.54,.68,.81,1.63,.81,2.86s-.27,2.19-.82,2.87c-.55,.68-1.31,1.02-2.29,1.02Zm-.16-6.8c-.77,0-1.32,.21-1.66,.64s-.52,1.1-.53,2.02v.25c0,1.05,.17,1.81,.53,2.26s.91,.68,1.69,.68c.65,0,1.15-.26,1.52-.79,.37-.52,.55-1.25,.55-2.17s-.18-1.65-.55-2.15c-.37-.5-.88-.75-1.55-.75Z"/>
      <path d="M851.9,333.33v4.16h-1.16v-9.99h2.74c1.23,0,2.13,.23,2.72,.7,.58,.47,.88,1.18,.88,2.12,0,1.32-.67,2.21-2.01,2.68l2.71,4.49h-1.37l-2.42-4.16h-2.08Zm0-1h1.59c.82,0,1.42-.16,1.8-.49s.57-.81,.57-1.47-.19-1.14-.58-1.43c-.39-.29-1.01-.44-1.88-.44h-1.51v3.82Z"/>
      <path d="M864.35,337.49v-4.85c0-.61-.14-1.07-.42-1.37s-.71-.45-1.31-.45c-.79,0-1.36,.21-1.73,.64-.36,.43-.54,1.13-.54,2.11v3.92h-1.13v-10.64h1.13v3.22c0,.39-.02,.71-.05,.96h.07c.22-.36,.54-.64,.95-.85,.41-.21,.88-.31,1.41-.31,.92,0,1.6,.22,2.06,.65,.46,.44,.69,1.13,.69,2.07v4.89h-1.13Z"/>
      <path d="M867.72,327.97c0-.26,.06-.45,.19-.57s.29-.18,.48-.18,.34,.06,.47,.18,.2,.31,.2,.57-.07,.45-.2,.57-.29,.19-.47,.19c-.19,0-.35-.06-.48-.19s-.19-.32-.19-.57Zm1.23,9.52h-1.13v-7.49h1.13v7.49Z"/>
      <path d="M876.48,337.49v-4.85c0-.61-.14-1.07-.42-1.37s-.71-.45-1.31-.45c-.78,0-1.36,.21-1.72,.64s-.55,1.12-.55,2.1v3.93h-1.13v-7.49h.92l.18,1.03h.05c.23-.37,.56-.66,.98-.86s.89-.3,1.4-.3c.9,0,1.58,.22,2.04,.65s.68,1.13,.68,2.09v4.89h-1.13Z"/>
      <path d="M886.42,333.74c0,1.22-.31,2.17-.92,2.86s-1.46,1.03-2.55,1.03c-.67,0-1.26-.16-1.78-.47s-.92-.77-1.2-1.35-.42-1.28-.42-2.06c0-1.22,.3-2.17,.92-2.85s1.46-1.02,2.54-1.02,1.88,.35,2.5,1.05c.62,.7,.93,1.64,.93,2.83Zm-5.71,0c0,.96,.19,1.69,.57,2.19s.95,.75,1.69,.75,1.31-.25,1.69-.75c.38-.5,.58-1.23,.58-2.19s-.19-1.68-.58-2.17c-.39-.49-.95-.74-1.71-.74s-1.3,.24-1.68,.73-.57,1.21-.57,2.18Z"/>
      <path d="M853.82,354.29h-1.16v-8.96h-3.17v-1.03h7.49v1.03h-3.17v8.96Z"/>
      <path d="M864.43,354.29l-1.37-4.4c-.09-.27-.25-.88-.49-1.83h-.05c-.18,.8-.34,1.41-.48,1.85l-1.42,4.38h-1.31l-2.04-7.49h1.19c.48,1.88,.85,3.32,1.1,4.3,.25,.98,.4,1.65,.43,1.99h.05c.05-.26,.13-.6,.24-1.01,.11-.41,.21-.74,.29-.98l1.37-4.3h1.23l1.34,4.3c.25,.78,.43,1.44,.52,1.98h.05c.02-.16,.07-.42,.15-.76,.08-.34,.55-2.18,1.42-5.52h1.18l-2.07,7.49h-1.35Z"/>
      <path d="M869.11,344.77c0-.26,.06-.45,.19-.57s.29-.18,.48-.18,.34,.06,.47,.18,.2,.31,.2,.57-.07,.45-.2,.57-.29,.19-.47,.19-.35-.06-.48-.19-.19-.32-.19-.57Zm1.23,9.52h-1.13v-7.49h1.13v7.49Z"/>
      <path d="M877.87,354.29v-4.85c0-.61-.14-1.07-.42-1.37s-.71-.45-1.31-.45c-.78,0-1.36,.21-1.72,.64s-.55,1.12-.55,2.1v3.93h-1.13v-7.49h.92l.18,1.03h.05c.23-.37,.56-.66,.98-.86s.89-.3,1.4-.3c.9,0,1.58,.22,2.04,.65s.68,1.13,.68,2.09v4.89h-1.13Z"/>
      <path d="M890.89,354.29v-4.87c0-.6-.13-1.04-.38-1.34s-.65-.45-1.19-.45c-.71,0-1.23,.2-1.57,.61s-.51,1.03-.51,1.87v4.18h-1.13v-4.87c0-.6-.13-1.04-.38-1.34s-.65-.45-1.2-.45c-.71,0-1.23,.21-1.56,.64-.33,.43-.5,1.12-.5,2.1v3.93h-1.13v-7.49h.92l.18,1.03h.05c.21-.36,.52-.65,.91-.85,.39-.21,.83-.31,1.31-.31,1.17,0,1.94,.42,2.3,1.27h.05c.22-.39,.55-.7,.97-.93s.91-.34,1.45-.34c.85,0,1.48,.22,1.9,.65,.42,.44,.63,1.13,.63,2.09v4.89h-1.13Z"/>
      <path d="M900.83,350.54c0,1.22-.31,2.17-.92,2.86s-1.46,1.03-2.55,1.03c-.67,0-1.26-.16-1.78-.47s-.92-.77-1.2-1.35-.42-1.28-.42-2.06c0-1.22,.3-2.17,.92-2.85s1.46-1.02,2.54-1.02,1.88,.35,2.5,1.05c.62,.7,.93,1.64,.93,2.83Zm-5.71,0c0,.96,.19,1.69,.57,2.19s.95,.75,1.69,.75,1.31-.25,1.69-.75c.38-.5,.58-1.23,.58-2.19s-.19-1.68-.58-2.17c-.39-.49-.95-.74-1.71-.74s-1.3,.24-1.68,.73-.57,1.21-.57,2.18Z"/>
      <path d="M905.24,353.49c.2,0,.39-.01,.58-.04s.33-.06,.44-.09v.87c-.12,.06-.3,.11-.54,.15-.24,.04-.46,.06-.65,.06-1.45,0-2.17-.76-2.17-2.29v-4.46h-1.07v-.55l1.07-.47,.48-1.6h.66v1.74h2.17v.88h-2.17v4.41c0,.45,.11,.8,.32,1.04s.51,.36,.88,.36Z"/>
      <path d="M907.66,344.77c0-.26,.06-.45,.19-.57s.29-.18,.48-.18,.34,.06,.47,.18,.2,.31,.2,.57-.07,.45-.2,.57-.29,.19-.47,.19-.35-.06-.48-.19-.19-.32-.19-.57Zm1.23,9.52h-1.13v-7.49h1.13v7.49Z"/>
      <path d="M917.77,350.54c0,1.22-.31,2.17-.92,2.86s-1.46,1.03-2.55,1.03c-.67,0-1.26-.16-1.78-.47s-.92-.77-1.2-1.35-.42-1.28-.42-2.06c0-1.22,.3-2.17,.92-2.85s1.46-1.02,2.54-1.02,1.88,.35,2.5,1.05c.62,.7,.93,1.64,.93,2.83Zm-5.71,0c0,.96,.19,1.69,.57,2.19s.95,.75,1.69,.75,1.31-.25,1.69-.75c.38-.5,.58-1.23,.58-2.19s-.19-1.68-.58-2.17c-.39-.49-.95-.74-1.71-.74s-1.3,.24-1.68,.73-.57,1.21-.57,2.18Z"/>
      <path d="M924.88,354.29v-4.85c0-.61-.14-1.07-.42-1.37s-.71-.45-1.31-.45c-.78,0-1.36,.21-1.72,.64s-.55,1.12-.55,2.1v3.93h-1.13v-7.49h.92l.18,1.03h.05c.23-.37,.56-.66,.98-.86s.89-.3,1.4-.3c.9,0,1.58,.22,2.04,.65s.68,1.13,.68,2.09v4.89h-1.13Z"/>
      <path d="M850.74,371.09v-9.99h1.16v8.94h4.41v1.05h-5.57Z"/>
      <path d="M858.9,363.6v4.86c0,.61,.14,1.07,.42,1.37s.71,.45,1.31,.45c.78,0,1.36-.21,1.72-.64,.36-.43,.54-1.13,.54-2.1v-3.94h1.13v7.49h-.94l-.16-1h-.06c-.23,.37-.55,.65-.97,.85-.41,.2-.88,.29-1.41,.29-.91,0-1.59-.22-2.05-.65-.45-.43-.68-1.13-.68-2.08v-4.9h1.15Z"/>
      <path d="M875.98,371.09v-4.87c0-.6-.13-1.04-.38-1.34s-.65-.45-1.19-.45c-.71,0-1.23,.2-1.57,.61s-.51,1.03-.51,1.87v4.18h-1.13v-4.87c0-.6-.13-1.04-.38-1.34s-.65-.45-1.2-.45c-.71,0-1.23,.21-1.56,.64-.33,.43-.5,1.12-.5,2.1v3.93h-1.13v-7.49h.92l.18,1.03h.05c.21-.36,.52-.65,.91-.85,.39-.21,.83-.31,1.31-.31,1.17,0,1.94,.42,2.3,1.27h.05c.22-.39,.55-.7,.97-.93s.91-.34,1.45-.34c.85,0,1.48,.22,1.9,.65,.42,.44,.63,1.13,.63,2.09v4.89h-1.13Z"/>
      <path d="M879.36,361.57c0-.26,.06-.45,.19-.57s.29-.18,.48-.18,.34,.06,.47,.18,.2,.31,.2,.57-.07,.45-.2,.57-.29,.19-.47,.19c-.19,0-.35-.06-.48-.19s-.19-.32-.19-.57Zm1.23,9.52h-1.13v-7.49h1.13v7.49Z"/>
      <path d="M889.46,367.34c0,1.22-.31,2.17-.92,2.86s-1.47,1.03-2.55,1.03c-.67,0-1.26-.16-1.78-.47s-.92-.77-1.2-1.35-.42-1.28-.42-2.06c0-1.22,.31-2.17,.92-2.85s1.46-1.02,2.54-1.02,1.88,.35,2.5,1.05c.62,.7,.93,1.64,.93,2.83Zm-5.71,0c0,.96,.19,1.69,.57,2.19s.95,.75,1.69,.75,1.31-.25,1.69-.75c.39-.5,.58-1.23,.58-2.19s-.19-1.68-.58-2.17c-.38-.49-.95-.74-1.71-.74s-1.3,.24-1.68,.73-.57,1.21-.57,2.18Z"/>
      <path d="M896.58,371.09v-4.85c0-.61-.14-1.07-.42-1.37s-.71-.45-1.31-.45c-.78,0-1.36,.21-1.72,.64s-.55,1.12-.55,2.1v3.93h-1.13v-7.49h.92l.18,1.03h.05c.23-.37,.56-.66,.98-.86s.89-.3,1.4-.3c.9,0,1.58,.22,2.04,.65s.68,1.13,.68,2.09v4.89h-1.13Z"/>
      <path d="M856.45,377.9h1.25l-3.6,9.99h-1.15l-3.58-9.99h1.23l2.3,6.47c.26,.74,.47,1.46,.63,2.17,.16-.74,.38-1.47,.64-2.21l2.28-6.43Z"/>
      <path d="M858.27,384.66v-1.04h3.36v1.04h-3.36Z"/>
      <path d="M864.74,383.73v4.16h-1.16v-9.99h2.74c1.23,0,2.13,.23,2.72,.7,.58,.47,.88,1.18,.88,2.12,0,1.32-.67,2.21-2.01,2.68l2.71,4.49h-1.37l-2.42-4.16h-2.08Zm0-1h1.59c.82,0,1.42-.16,1.8-.49s.57-.81,.57-1.47-.19-1.14-.58-1.43c-.39-.29-1.01-.44-1.88-.44h-1.51v3.82Z"/>
      <path d="M876.67,387.89l-.23-1.07h-.05c-.37,.47-.75,.79-1.12,.95-.37,.17-.84,.25-1.39,.25-.74,0-1.33-.19-1.75-.57-.42-.38-.63-.93-.63-1.63,0-1.51,1.21-2.31,3.63-2.38l1.27-.04v-.46c0-.59-.13-1.02-.38-1.3-.25-.28-.66-.42-1.21-.42-.62,0-1.33,.19-2.12,.57l-.35-.87c.37-.2,.77-.36,1.21-.47,.44-.11,.88-.17,1.32-.17,.89,0,1.56,.2,1.99,.59,.43,.4,.65,1.03,.65,1.91v5.11h-.84Zm-2.56-.8c.71,0,1.26-.19,1.66-.58,.4-.39,.61-.93,.61-1.63v-.68l-1.13,.05c-.9,.03-1.55,.17-1.95,.42-.4,.25-.6,.63-.6,1.16,0,.41,.12,.72,.37,.94,.25,.21,.6,.32,1.04,.32Z"/>
      <path d="M878.66,380.4h1.22l1.64,4.27c.36,.98,.58,1.68,.67,2.11h.05c.06-.23,.18-.63,.37-1.19,.19-.56,.81-2.29,1.86-5.19h1.22l-3.22,8.53c-.32,.84-.69,1.44-1.12,1.79-.43,.35-.95,.53-1.57,.53-.35,0-.69-.04-1.03-.12v-.91c.25,.05,.53,.08,.84,.08,.78,0,1.33-.44,1.67-1.31l.42-1.07-3.02-7.53Z"/>
    </g>
    <g>
      <path d="M420.92,510c0,1.64-.47,2.91-1.4,3.78s-2.29,1.31-4.06,1.31h-2.83v-9.99h3.14c1.63,0,2.9,.43,3.8,1.29s1.35,2.06,1.35,3.61Zm-2.2,.05c0-2.15-.95-3.22-2.84-3.22h-1.13v6.51h.91c2.04,0,3.06-1.1,3.06-3.29Z"/>
      <path d="M428.74,515.09h-5.76v-9.99h5.76v1.74h-3.64v2.19h3.38v1.74h-3.38v2.58h3.64v1.75Z"/>
      <path d="M436.73,512.32c0,.9-.32,1.61-.97,2.13s-1.55,.78-2.71,.78c-1.07,0-2.01-.2-2.83-.6v-1.97c.67,.3,1.25,.51,1.71,.64s.89,.18,1.28,.18c.46,0,.82-.09,1.07-.27s.37-.44,.37-.79c0-.2-.05-.37-.16-.52-.11-.15-.27-.3-.48-.44s-.64-.37-1.3-.68c-.61-.29-1.07-.56-1.37-.83s-.55-.57-.73-.92-.27-.76-.27-1.23c0-.88,.3-1.58,.9-2.08s1.43-.76,2.48-.76c.52,0,1.02,.06,1.49,.18s.96,.3,1.48,.52l-.68,1.65c-.53-.22-.97-.37-1.32-.46s-.69-.13-1.03-.13c-.4,0-.71,.09-.92,.28s-.32,.43-.32,.73c0,.19,.04,.35,.13,.49,.09,.14,.22,.27,.41,.4,.19,.13,.64,.36,1.34,.7,.93,.45,1.57,.89,1.92,1.34,.35,.45,.52,1,.52,1.65Z"/>
      <path d="M438.54,515.09v-9.99h2.12v9.99h-2.12Z"/>
      <path d="M446.97,509.48h3.96v5.18c-.64,.21-1.25,.36-1.81,.44-.57,.08-1.15,.13-1.74,.13-1.51,0-2.66-.44-3.46-1.33-.8-.89-1.19-2.16-1.19-3.82s.46-2.87,1.38-3.77,2.2-1.35,3.84-1.35c1.03,0,2.01,.21,2.97,.62l-.7,1.7c-.73-.37-1.49-.55-2.28-.55-.92,0-1.65,.31-2.2,.92s-.83,1.44-.83,2.48,.22,1.91,.67,2.48c.44,.57,1.09,.86,1.94,.86,.44,0,.89-.05,1.35-.14v-2.08h-1.89v-1.76Z"/>
      <path d="M462.18,515.09h-2.69l-4.35-7.56h-.06c.09,1.33,.13,2.29,.13,2.86v4.7h-1.89v-9.99h2.67l4.34,7.49h.05c-.07-1.3-.1-2.22-.1-2.75v-4.73h1.91v9.99Z"/>
      <path d="M419.08,541.61c0,1.01-.35,1.79-1.04,2.33-.69,.54-1.68,.82-2.96,.82h-1.18v3.93h-1.16v-9.99h2.59c2.5,0,3.75,.97,3.75,2.91Zm-5.17,2.15h1.05c1.03,0,1.77-.17,2.24-.5s.69-.87,.69-1.6c0-.66-.22-1.15-.65-1.48s-1.11-.49-2.02-.49h-1.3v4.06Z"/>
      <path d="M426.12,548.69v-4.85c0-.61-.14-1.07-.42-1.37s-.71-.45-1.31-.45c-.79,0-1.36,.21-1.73,.64s-.54,1.13-.54,2.11v3.92h-1.13v-10.64h1.13v3.22c0,.39-.02,.71-.05,.96h.07c.22-.36,.54-.64,.95-.85,.41-.21,.88-.31,1.41-.31,.92,0,1.6,.22,2.06,.65,.46,.43,.69,1.13,.69,2.07v4.89h-1.13Z"/>
      <path d="M436.06,544.94c0,1.22-.31,2.17-.92,2.86-.62,.69-1.47,1.03-2.55,1.03-.67,0-1.26-.16-1.78-.47s-.92-.77-1.2-1.35-.42-1.28-.42-2.06c0-1.22,.31-2.17,.92-2.85,.61-.68,1.46-1.02,2.54-1.02s1.88,.35,2.5,1.05,.93,1.64,.93,2.83Zm-5.71,0c0,.96,.19,1.69,.57,2.19s.95,.75,1.69,.75,1.31-.25,1.69-.75c.39-.5,.58-1.23,.58-2.19s-.19-1.68-.58-2.17c-.39-.5-.95-.74-1.71-.74s-1.3,.24-1.68,.73-.57,1.21-.57,2.18Z"/>
      <path d="M440.47,547.89c.2,0,.39-.01,.58-.04,.19-.03,.33-.06,.44-.09v.87c-.12,.06-.3,.11-.54,.15-.24,.04-.45,.06-.65,.06-1.45,0-2.17-.76-2.17-2.29v-4.46h-1.07v-.55l1.07-.47,.48-1.6h.66v1.74h2.17v.88h-2.17v4.41c0,.45,.11,.8,.32,1.04s.51,.36,.88,.36Z"/>
      <path d="M449.46,544.94c0,1.22-.31,2.17-.92,2.86-.62,.69-1.47,1.03-2.55,1.03-.67,0-1.26-.16-1.78-.47s-.92-.77-1.2-1.35-.42-1.28-.42-2.06c0-1.22,.31-2.17,.92-2.85,.61-.68,1.46-1.02,2.54-1.02s1.88,.35,2.5,1.05,.93,1.64,.93,2.83Zm-5.71,0c0,.96,.19,1.69,.57,2.19s.95,.75,1.69,.75,1.31-.25,1.69-.75c.39-.5,.58-1.23,.58-2.19s-.19-1.68-.58-2.17c-.39-.5-.95-.74-1.71-.74s-1.3,.24-1.68,.73-.57,1.21-.57,2.18Z"/>
      <path d="M456.28,546.65c0,.7-.26,1.23-.78,1.61s-1.25,.57-2.19,.57c-.99,0-1.77-.16-2.32-.47v-1.05c.36,.18,.75,.33,1.16,.43s.81,.16,1.19,.16c.59,0,1.05-.09,1.37-.28,.32-.19,.48-.48,.48-.87,0-.29-.13-.54-.38-.75-.25-.21-.75-.45-1.48-.74-.7-.26-1.19-.49-1.49-.68-.29-.19-.51-.41-.66-.66s-.22-.54-.22-.88c0-.61,.25-1.09,.75-1.45,.5-.35,1.18-.53,2.04-.53,.81,0,1.6,.16,2.37,.49l-.4,.92c-.75-.31-1.43-.46-2.04-.46-.54,0-.94,.08-1.22,.25s-.41,.4-.41,.7c0,.2,.05,.37,.15,.51s.27,.28,.5,.4,.67,.31,1.31,.55c.89,.32,1.49,.65,1.8,.98s.47,.74,.47,1.24Z"/>
      <path d="M463.25,548.69v-4.85c0-.61-.14-1.07-.42-1.37s-.71-.45-1.31-.45c-.79,0-1.36,.21-1.73,.64s-.54,1.13-.54,2.11v3.92h-1.13v-10.64h1.13v3.22c0,.39-.02,.71-.05,.96h.07c.22-.36,.54-.64,.95-.85,.41-.21,.88-.31,1.41-.31,.92,0,1.6,.22,2.06,.65,.46,.43,.69,1.13,.69,2.07v4.89h-1.13Z"/>
      <path d="M473.18,544.94c0,1.22-.31,2.17-.92,2.86-.62,.69-1.47,1.03-2.55,1.03-.67,0-1.26-.16-1.78-.47s-.92-.77-1.2-1.35-.42-1.28-.42-2.06c0-1.22,.31-2.17,.92-2.85,.61-.68,1.46-1.02,2.54-1.02s1.88,.35,2.5,1.05,.93,1.64,.93,2.83Zm-5.71,0c0,.96,.19,1.69,.57,2.19s.95,.75,1.69,.75,1.31-.25,1.69-.75c.39-.5,.58-1.23,.58-2.19s-.19-1.68-.58-2.17c-.39-.5-.95-.74-1.71-.74s-1.3,.24-1.68,.73-.57,1.21-.57,2.18Z"/>
      <path d="M478.66,548.83c-.49,0-.93-.09-1.34-.27-.4-.18-.74-.46-1.02-.83h-.08c.05,.44,.08,.85,.08,1.24v3.08h-1.13v-10.86h.92l.16,1.03h.05c.29-.41,.63-.71,1.02-.89s.83-.27,1.33-.27c.99,0,1.76,.34,2.3,1.02s.81,1.63,.81,2.86-.27,2.19-.82,2.87c-.55,.68-1.31,1.02-2.29,1.02Zm-.16-6.8c-.77,0-1.32,.21-1.66,.64s-.52,1.1-.53,2.02v.25c0,1.05,.18,1.81,.53,2.26,.35,.45,.91,.68,1.69,.68,.65,0,1.15-.26,1.52-.79s.55-1.25,.55-2.17-.18-1.65-.55-2.15c-.37-.5-.88-.75-1.55-.75Z"/>
      <path d="M412.74,565.49v-9.99h1.16v9.99h-1.16Z"/>
      <path d="M417.61,565.49h-1.13v-10.64h1.13v10.64Z"/>
      <path d="M421.15,565.49h-1.13v-10.64h1.13v10.64Z"/>
      <path d="M424.62,558v4.86c0,.61,.14,1.07,.42,1.37s.71,.45,1.31,.45c.78,0,1.36-.21,1.72-.64,.36-.43,.54-1.13,.54-2.1v-3.94h1.13v7.49h-.94l-.16-1h-.06c-.23,.37-.55,.65-.97,.85-.41,.2-.88,.29-1.41,.29-.91,0-1.59-.22-2.05-.65-.45-.43-.68-1.13-.68-2.08v-4.9h1.15Z"/>
      <path d="M436.98,563.45c0,.7-.26,1.23-.78,1.61-.52,.38-1.25,.57-2.19,.57-.99,0-1.77-.16-2.32-.47v-1.05c.36,.18,.75,.33,1.16,.43,.41,.11,.81,.16,1.19,.16,.59,0,1.05-.1,1.37-.28s.48-.48,.48-.86c0-.29-.13-.54-.38-.75s-.75-.45-1.48-.74c-.7-.26-1.19-.49-1.49-.68s-.51-.41-.66-.66-.22-.54-.22-.88c0-.61,.25-1.09,.75-1.45s1.18-.53,2.04-.53c.81,0,1.6,.16,2.37,.49l-.4,.92c-.75-.31-1.43-.46-2.04-.46-.54,0-.94,.08-1.22,.25-.27,.17-.41,.4-.41,.7,0,.2,.05,.37,.15,.51,.1,.14,.27,.28,.5,.4,.23,.13,.67,.31,1.31,.55,.89,.32,1.49,.65,1.8,.98s.47,.74,.47,1.24Z"/>
      <path d="M441.25,564.69c.2,0,.39-.02,.58-.04s.33-.06,.44-.09v.87c-.12,.06-.3,.11-.54,.15s-.45,.06-.65,.06c-1.45,0-2.17-.76-2.17-2.29v-4.46h-1.07v-.55l1.07-.47,.48-1.6h.66v1.74h2.17v.88h-2.17v4.41c0,.45,.11,.8,.32,1.04,.21,.24,.51,.36,.88,.36Z"/>
      <path d="M447.19,557.86c.33,0,.63,.03,.9,.08l-.16,1.05c-.31-.07-.58-.1-.82-.1-.61,0-1.12,.25-1.56,.74s-.65,1.1-.65,1.84v4.02h-1.13v-7.49h.94l.13,1.39h.05c.28-.49,.61-.86,1-1.13,.39-.26,.82-.4,1.29-.4Z"/>
      <path d="M454.09,565.49l-.23-1.07h-.05c-.37,.47-.75,.79-1.12,.95s-.83,.25-1.39,.25c-.74,0-1.33-.19-1.75-.57s-.63-.93-.63-1.63c0-1.51,1.21-2.31,3.63-2.38l1.27-.04v-.46c0-.59-.13-1.02-.38-1.3s-.66-.42-1.21-.42c-.62,0-1.33,.19-2.12,.57l-.35-.87c.37-.2,.77-.36,1.21-.47,.44-.11,.88-.17,1.32-.17,.89,0,1.56,.2,1.99,.6s.65,1.03,.65,1.91v5.11h-.84Zm-2.56-.8c.71,0,1.26-.19,1.66-.58,.4-.39,.6-.93,.6-1.63v-.68l-1.13,.05c-.9,.03-1.55,.17-1.95,.42s-.6,.63-.6,1.16c0,.41,.12,.72,.37,.94,.25,.21,.6,.32,1.04,.32Z"/>
      <path d="M459.69,564.69c.2,0,.39-.02,.58-.04s.33-.06,.44-.09v.87c-.12,.06-.3,.11-.54,.15s-.45,.06-.65,.06c-1.45,0-2.17-.76-2.17-2.29v-4.46h-1.07v-.55l1.07-.47,.48-1.6h.66v1.74h2.17v.88h-2.17v4.41c0,.45,.11,.8,.32,1.04,.21,.24,.51,.36,.88,.36Z"/>
      <path d="M468.68,561.74c0,1.22-.31,2.17-.92,2.86s-1.47,1.03-2.55,1.03c-.67,0-1.26-.16-1.78-.47s-.92-.77-1.2-1.35-.42-1.28-.42-2.06c0-1.22,.31-2.17,.92-2.85s1.46-1.02,2.54-1.02,1.88,.35,2.5,1.05,.93,1.64,.93,2.83Zm-5.71,0c0,.96,.19,1.69,.57,2.19,.38,.5,.95,.75,1.69,.75s1.31-.25,1.69-.75,.58-1.23,.58-2.19-.19-1.68-.58-2.17-.95-.74-1.71-.74-1.3,.24-1.68,.73c-.38,.49-.57,1.21-.57,2.18Z"/>
      <path d="M474.09,557.86c.33,0,.63,.03,.9,.08l-.16,1.05c-.31-.07-.58-.1-.82-.1-.61,0-1.12,.25-1.56,.74s-.65,1.1-.65,1.84v4.02h-1.13v-7.49h.94l.13,1.39h.05c.28-.49,.61-.86,1-1.13,.39-.26,.82-.4,1.29-.4Z"/>
      <path d="M412.74,582.29v-9.99h1.16v9.99h-1.16Z"/>
      <path d="M421.6,582.29v-4.85c0-.61-.14-1.07-.42-1.37s-.71-.45-1.31-.45c-.78,0-1.36,.21-1.72,.64s-.55,1.12-.55,2.1v3.93h-1.13v-7.49h.92l.18,1.03h.05c.23-.37,.56-.66,.98-.86s.89-.3,1.4-.3c.9,0,1.58,.22,2.04,.65s.68,1.13,.68,2.09v4.89h-1.13Z"/>
      <path d="M433.21,577.2c0,1.65-.45,2.91-1.34,3.78s-2.18,1.31-3.87,1.31h-2.77v-9.99h3.06c1.55,0,2.76,.43,3.62,1.29s1.29,2.06,1.29,3.61Zm-1.23,.04c0-1.3-.33-2.29-.98-2.95-.65-.66-1.63-.99-2.92-.99h-1.69v7.98h1.42c1.39,0,2.43-.34,3.12-1.02s1.05-1.69,1.05-3.03Z"/>
      <path d="M438.44,582.43c-1.11,0-1.98-.34-2.62-1.01-.64-.67-.96-1.61-.96-2.81s.3-2.17,.89-2.88,1.39-1.07,2.4-1.07c.94,0,1.68,.31,2.23,.93s.82,1.43,.82,2.44v.72h-5.16c.02,.88,.25,1.55,.67,2,.42,.46,1.02,.68,1.78,.68,.81,0,1.6-.17,2.39-.51v1.01c-.4,.17-.78,.3-1.14,.37s-.79,.11-1.3,.11Zm-.31-6.82c-.6,0-1.08,.2-1.44,.59-.36,.39-.57,.93-.63,1.63h3.92c0-.71-.16-1.26-.48-1.64s-.77-.57-1.37-.57Z"/>
      <path d="M447.96,580.25c0,.7-.26,1.24-.78,1.61-.52,.38-1.25,.57-2.19,.57-.99,0-1.77-.16-2.32-.47v-1.05c.36,.18,.75,.33,1.16,.43,.41,.1,.81,.16,1.19,.16,.59,0,1.05-.09,1.37-.28s.48-.48,.48-.87c0-.29-.13-.54-.38-.75s-.75-.45-1.48-.73c-.7-.26-1.19-.49-1.49-.68s-.51-.41-.66-.66-.22-.54-.22-.88c0-.61,.25-1.09,.75-1.45s1.18-.53,2.04-.53c.81,0,1.6,.16,2.37,.49l-.4,.92c-.75-.31-1.43-.46-2.04-.46-.54,0-.94,.08-1.22,.25-.27,.17-.41,.4-.41,.7,0,.2,.05,.37,.15,.51,.1,.14,.27,.28,.5,.4,.23,.13,.67,.31,1.31,.55,.89,.32,1.49,.65,1.8,.98s.47,.74,.47,1.24Z"/>
      <path d="M449.71,572.77c0-.26,.06-.45,.19-.57s.29-.18,.48-.18,.34,.06,.47,.19,.2,.31,.2,.57-.07,.45-.2,.57-.29,.19-.47,.19c-.19,0-.35-.06-.48-.19s-.19-.32-.19-.57Zm1.23,9.52h-1.13v-7.49h1.13v7.49Z"/>
      <path d="M459.48,574.8v.72l-1.39,.16c.13,.16,.24,.37,.34,.63s.15,.55,.15,.87c0,.73-.25,1.32-.75,1.76s-1.19,.66-2.06,.66c-.22,0-.43-.02-.63-.05-.48,.26-.72,.58-.72,.96,0,.21,.08,.36,.25,.45s.46,.15,.87,.15h1.33c.81,0,1.43,.17,1.87,.51s.65,.84,.65,1.49c0,.83-.33,1.46-1,1.9s-1.64,.65-2.91,.65c-.98,0-1.74-.18-2.27-.55-.53-.37-.8-.88-.8-1.54,0-.46,.15-.85,.44-1.18,.29-.33,.7-.56,1.23-.68-.19-.09-.35-.22-.48-.4-.13-.18-.19-.39-.19-.63,0-.27,.07-.51,.22-.72s.38-.4,.69-.59c-.39-.16-.7-.43-.95-.81s-.37-.82-.37-1.31c0-.82,.25-1.45,.74-1.9s1.19-.67,2.09-.67c.39,0,.75,.04,1.06,.14h2.59Zm-5.97,8.75c0,.41,.17,.71,.51,.92,.34,.21,.83,.31,1.47,.31,.95,0,1.66-.14,2.12-.43s.69-.67,.69-1.16c0-.41-.13-.69-.38-.84s-.72-.24-1.42-.24h-1.36c-.52,0-.92,.12-1.2,.37s-.43,.6-.43,1.06Zm.62-6.35c0,.52,.15,.92,.44,1.19,.3,.27,.71,.4,1.24,.4,1.11,0,1.66-.54,1.66-1.61s-.56-1.69-1.68-1.69c-.53,0-.94,.14-1.23,.43s-.43,.71-.43,1.28Z"/>
      <path d="M466.14,582.29v-4.85c0-.61-.14-1.07-.42-1.37s-.71-.45-1.31-.45c-.78,0-1.36,.21-1.72,.64s-.55,1.12-.55,2.1v3.93h-1.13v-7.49h.92l.18,1.03h.05c.23-.37,.56-.66,.98-.86s.89-.3,1.4-.3c.9,0,1.58,.22,2.04,.65s.68,1.13,.68,2.09v4.89h-1.13Z"/>
    </g>
    <g>
      <path d="M919.69,428.23c-.63,0-1.11,.24-1.46,.71s-.52,1.13-.52,1.97c0,1.75,.66,2.63,1.97,2.63,.55,0,1.22-.14,2-.41v1.4c-.64,.27-1.36,.4-2.16,.4-1.14,0-2.02-.35-2.62-1.04s-.91-1.69-.91-2.98c0-.82,.15-1.53,.45-2.15,.3-.61,.72-1.09,1.28-1.41,.56-.33,1.21-.49,1.96-.49s1.53,.18,2.3,.55l-.54,1.35c-.29-.14-.59-.26-.89-.37-.3-.1-.59-.16-.88-.16Z"/>
      <path d="M930.49,430.87c0,1.3-.32,2.3-.97,3s-1.57,1.05-2.77,1.05-2.13-.35-2.77-1.05-.97-1.7-.97-3.01,.32-2.3,.97-2.99,1.57-1.03,2.78-1.03,2.13,.35,2.77,1.04c.64,.7,.96,1.69,.96,3Zm-5.73,0c0,.88,.17,1.54,.5,1.98,.33,.44,.83,.67,1.49,.67,1.33,0,1.99-.88,1.99-2.65s-.66-2.65-1.98-2.65c-.66,0-1.16,.22-1.5,.67-.34,.45-.51,1.11-.51,1.99Z"/>
      <path d="M938.63,430.81c0,1.29-.37,2.28-1.1,2.97-.73,.69-1.8,1.03-3.19,1.03h-2.22v-7.85h2.46c1.28,0,2.28,.34,2.99,1.01s1.06,1.62,1.06,2.84Zm-1.73,.04c0-1.69-.74-2.53-2.23-2.53h-.89v5.11h.71c1.6,0,2.41-.86,2.41-2.58Z"/>
      <path d="M940.26,434.81v-7.85h1.66v7.85h-1.66Z"/>
      <path d="M950.87,434.81h-2.12l-3.42-5.94h-.05c.07,1.05,.1,1.8,.1,2.24v3.7h-1.49v-7.85h2.1l3.41,5.88h.04c-.05-1.02-.08-1.74-.08-2.16v-3.72h1.5v7.85Z"/>
      <path d="M955.83,430.4h3.12v4.07c-.5,.16-.98,.28-1.43,.35-.45,.07-.9,.1-1.37,.1-1.18,0-2.09-.35-2.71-1.04-.62-.7-.94-1.7-.94-3s.36-2.26,1.09-2.96c.73-.71,1.73-1.06,3.02-1.06,.81,0,1.58,.16,2.33,.48l-.55,1.33c-.57-.29-1.17-.43-1.79-.43-.72,0-1.3,.24-1.73,.73-.43,.48-.65,1.13-.65,1.95s.17,1.5,.52,1.95c.35,.45,.86,.67,1.52,.67,.35,0,.7-.04,1.06-.11v-1.64h-1.49v-1.39Z"/>
      <path d="M919.9,457.1h2.67v3.82c-.42,.13-.84,.23-1.27,.3-.43,.07-.93,.1-1.49,.1-1.19,0-2.12-.35-2.78-1.06s-.99-1.7-.99-2.97c0-.82,.16-1.53,.49-2.15,.33-.61,.8-1.08,1.42-1.41,.62-.32,1.34-.49,2.17-.49s1.62,.15,2.34,.46l-.36,.81c-.71-.3-1.39-.45-2.05-.45-.96,0-1.7,.28-2.24,.85s-.81,1.36-.81,2.37c0,1.06,.26,1.86,.78,2.41,.52,.55,1.28,.82,2.28,.82,.54,0,1.08-.06,1.6-.19v-2.42h-1.76v-.82Z"/>
      <path d="M927.01,455.22c.26,0,.5,.02,.7,.06l-.12,.83c-.24-.05-.46-.08-.64-.08-.48,0-.88,.19-1.22,.58s-.51,.87-.51,1.45v3.16h-.89v-5.89h.74l.1,1.09h.04c.22-.38,.48-.68,.79-.89s.65-.31,1.02-.31Z"/>
      <path d="M932.43,461.21l-.18-.84h-.04c-.29,.37-.59,.62-.88,.75-.29,.13-.66,.2-1.09,.2-.58,0-1.04-.15-1.37-.45-.33-.3-.5-.73-.5-1.28,0-1.19,.95-1.81,2.85-1.87l1-.03v-.37c0-.46-.1-.8-.3-1.02-.2-.22-.52-.33-.95-.33-.49,0-1.04,.15-1.66,.45l-.27-.68c.29-.16,.61-.28,.95-.37,.34-.09,.69-.13,1.04-.13,.7,0,1.22,.16,1.56,.47,.34,.31,.51,.81,.51,1.5v4.02h-.66Zm-2.01-.63c.55,0,.99-.15,1.31-.46,.32-.3,.47-.73,.47-1.28v-.53l-.89,.04c-.71,.03-1.22,.13-1.53,.33-.31,.2-.47,.5-.47,.91,0,.32,.1,.57,.29,.74,.19,.17,.47,.25,.82,.25Z"/>
      <path d="M938.72,459.61c0,.55-.2,.97-.61,1.27-.41,.3-.98,.45-1.72,.45-.78,0-1.39-.12-1.83-.37v-.83c.28,.14,.59,.26,.91,.34s.64,.12,.94,.12c.46,0,.82-.07,1.07-.22,.25-.15,.38-.38,.38-.68,0-.23-.1-.42-.3-.59-.2-.16-.59-.36-1.16-.58-.55-.2-.94-.38-1.17-.53-.23-.15-.4-.33-.52-.52-.11-.19-.17-.42-.17-.69,0-.48,.2-.86,.58-1.14,.39-.28,.93-.42,1.61-.42,.63,0,1.25,.13,1.86,.39l-.32,.72c-.59-.24-1.13-.37-1.61-.37-.42,0-.74,.07-.96,.2s-.32,.31-.32,.55c0,.16,.04,.29,.12,.4,.08,.11,.21,.22,.39,.32,.18,.1,.52,.25,1.03,.44,.7,.25,1.17,.51,1.42,.77,.25,.26,.37,.58,.37,.97Z"/>
      <path d="M943.97,459.61c0,.55-.2,.97-.61,1.27-.41,.3-.98,.45-1.72,.45-.78,0-1.39-.12-1.83-.37v-.83c.28,.14,.59,.26,.91,.34,.32,.08,.64,.12,.94,.12,.47,0,.82-.07,1.07-.22s.38-.38,.38-.68c0-.23-.1-.42-.3-.59-.2-.16-.59-.36-1.16-.58-.55-.2-.94-.38-1.17-.53s-.4-.33-.52-.52-.17-.42-.17-.69c0-.48,.2-.86,.59-1.14s.93-.42,1.61-.42c.63,0,1.25,.13,1.86,.39l-.32,.72c-.59-.24-1.13-.37-1.61-.37-.42,0-.74,.07-.96,.2s-.32,.31-.32,.55c0,.16,.04,.29,.12,.4,.08,.11,.21,.22,.39,.32s.52,.25,1.03,.44c.7,.25,1.17,.51,1.42,.77,.24,.26,.37,.58,.37,.97Z"/>
      <path d="M949.45,461.21v-3.81c0-.48-.11-.84-.33-1.07-.22-.24-.56-.35-1.03-.35-.62,0-1.07,.17-1.36,.5-.28,.34-.43,.89-.43,1.65v3.08h-.89v-8.36h.89v2.53c0,.3-.01,.56-.04,.76h.05c.17-.28,.42-.51,.75-.67s.69-.24,1.11-.24c.72,0,1.26,.17,1.62,.51,.36,.34,.54,.89,.54,1.63v3.84h-.89Z"/>
      <path d="M957.26,458.26c0,.96-.24,1.71-.73,2.25s-1.15,.81-2,.81c-.53,0-.99-.12-1.4-.37-.41-.25-.72-.6-.95-1.06-.22-.46-.33-1-.33-1.62,0-.96,.24-1.71,.72-2.24s1.15-.8,2-.8,1.48,.27,1.96,.82c.49,.55,.73,1.29,.73,2.22Zm-4.49,0c0,.75,.15,1.33,.45,1.72,.3,.39,.74,.59,1.33,.59s1.03-.2,1.33-.59c.3-.39,.46-.97,.46-1.72s-.15-1.32-.46-1.71c-.3-.39-.75-.58-1.34-.58s-1.02,.19-1.32,.57c-.3,.38-.45,.95-.45,1.71Z"/>
      <path d="M961.56,461.32c-.38,0-.73-.07-1.05-.21-.32-.14-.58-.36-.8-.65h-.06c.04,.34,.06,.67,.06,.98v2.42h-.89v-8.53h.72l.12,.81h.04c.23-.32,.5-.56,.8-.7,.3-.14,.65-.21,1.05-.21,.78,0,1.38,.27,1.81,.8,.42,.53,.64,1.28,.64,2.24s-.22,1.72-.65,2.25c-.43,.54-1.03,.8-1.8,.8Zm-.13-5.34c-.6,0-1.04,.17-1.31,.5-.27,.33-.41,.86-.41,1.59v.2c0,.83,.14,1.42,.41,1.78,.28,.36,.72,.54,1.33,.54,.51,0,.91-.21,1.2-.62s.43-.98,.43-1.7-.14-1.3-.43-1.69c-.29-.39-.69-.59-1.22-.59Z"/>
      <path d="M968.3,461.32c-.38,0-.73-.07-1.05-.21s-.58-.36-.8-.65h-.06c.04,.34,.06,.67,.06,.98v2.42h-.89v-8.53h.73l.12,.81h.04c.23-.32,.5-.56,.8-.7s.65-.21,1.05-.21c.78,0,1.38,.27,1.81,.8,.42,.53,.64,1.28,.64,2.24s-.22,1.72-.65,2.25c-.43,.54-1.03,.8-1.8,.8Zm-.13-5.34c-.6,0-1.04,.17-1.31,.5s-.41,.86-.41,1.59v.2c0,.83,.14,1.42,.41,1.78,.28,.36,.72,.54,1.33,.54,.51,0,.91-.21,1.2-.62,.29-.41,.43-.98,.43-1.7s-.14-1.3-.43-1.69c-.29-.39-.69-.59-1.22-.59Z"/>
      <path d="M974.79,461.32c-.87,0-1.56-.27-2.06-.79-.5-.53-.75-1.27-.75-2.21s.23-1.7,.7-2.26c.47-.56,1.09-.84,1.88-.84,.74,0,1.32,.24,1.75,.73s.64,1.13,.64,1.92v.56h-4.05c.02,.69,.19,1.22,.52,1.57,.33,.36,.8,.54,1.4,.54,.63,0,1.26-.13,1.88-.4v.79c-.32,.14-.61,.23-.89,.29-.28,.06-.62,.09-1.02,.09Zm-.24-5.36c-.47,0-.85,.15-1.13,.46-.28,.31-.45,.73-.5,1.28h3.08c0-.56-.13-.99-.38-1.29s-.61-.45-1.07-.45Z"/>
      <path d="M981.16,455.22c.26,0,.5,.02,.7,.06l-.12,.83c-.24-.05-.46-.08-.64-.08-.48,0-.88,.19-1.22,.58-.34,.39-.51,.87-.51,1.45v3.16h-.89v-5.89h.74l.1,1.09h.04c.22-.38,.48-.68,.79-.89s.65-.31,1.01-.31Z"/>
      <path d="M919.81,467.26c-.86,0-1.54,.29-2.04,.86-.5,.58-.75,1.36-.75,2.36s.24,1.82,.72,2.38,1.17,.84,2.06,.84c.55,0,1.17-.1,1.88-.29v.8c-.54,.2-1.22,.31-2.01,.31-1.16,0-2.05-.35-2.68-1.05-.63-.7-.94-1.7-.94-2.99,0-.81,.15-1.52,.45-2.13,.3-.61,.74-1.08,1.31-1.41,.57-.33,1.24-.49,2.02-.49,.82,0,1.54,.15,2.16,.45l-.39,.79c-.59-.28-1.19-.42-1.78-.42Z"/>
      <path d="M927.82,472.32c0,.69-.25,1.23-.75,1.62s-1.18,.58-2.04,.58c-.93,0-1.65-.12-2.15-.36v-.88c.32,.14,.67,.24,1.05,.32,.38,.08,.76,.12,1.13,.12,.61,0,1.07-.12,1.38-.35,.31-.23,.46-.55,.46-.96,0-.27-.05-.5-.16-.67-.11-.17-.29-.33-.55-.48-.26-.15-.65-.31-1.17-.5-.73-.26-1.25-.57-1.57-.93-.31-.36-.47-.83-.47-1.4,0-.61,.23-1.09,.68-1.45,.45-.36,1.06-.54,1.8-.54s1.5,.14,2.15,.43l-.28,.79c-.65-.27-1.28-.41-1.89-.41-.48,0-.86,.1-1.13,.31-.27,.21-.41,.5-.41,.86,0,.27,.05,.5,.15,.67,.1,.17,.27,.33,.51,.48,.24,.15,.6,.31,1.09,.48,.82,.29,1.39,.61,1.7,.95,.31,.34,.46,.77,.46,1.31Z"/>
      <path d="M933.85,472.32c0,.69-.25,1.23-.75,1.62s-1.18,.58-2.04,.58c-.93,0-1.65-.12-2.15-.36v-.88c.32,.14,.67,.24,1.05,.32,.38,.08,.76,.12,1.13,.12,.61,0,1.07-.12,1.38-.35,.31-.23,.46-.55,.46-.96,0-.27-.05-.5-.16-.67-.11-.17-.29-.33-.55-.48-.26-.15-.65-.31-1.17-.5-.73-.26-1.25-.57-1.57-.93-.31-.36-.47-.83-.47-1.4,0-.61,.23-1.09,.68-1.45,.45-.36,1.06-.54,1.8-.54s1.5,.14,2.15,.43l-.28,.79c-.65-.27-1.28-.41-1.89-.41-.48,0-.86,.1-1.13,.31-.27,.21-.41,.5-.41,.86,0,.27,.05,.5,.15,.67,.1,.17,.27,.33,.51,.48,.24,.15,.6,.31,1.09,.48,.82,.29,1.39,.61,1.7,.95,.31,.34,.46,.77,.46,1.31Z"/>
      <path d="M922.41,487.61h-.91v-3.7h-4.13v3.7h-.91v-7.85h.91v3.34h4.13v-3.34h.91v7.85Z"/>
      <path d="M926.98,487.61h-.91v-7.04h-2.49v-.81h5.89v.81h-2.49v7.04Z"/>
      <path d="M934.12,487.61l-2.66-6.96h-.04c.05,.55,.08,1.21,.08,1.97v5h-.84v-7.85h1.38l2.49,6.48h.04l2.51-6.48h1.36v7.85h-.91v-5.06c0-.58,.02-1.21,.07-1.89h-.04l-2.69,6.95h-.74Z"/>
      <path d="M940.58,487.61v-7.85h.91v7.03h3.46v.83h-4.38Z"/>
      <path d="M915.3,502.88c-.34,0-.6-.05-.79-.14v-.78c.25,.07,.52,.11,.79,.11,.35,0,.62-.11,.81-.32s.28-.52,.28-.93v-7.85h.91v7.78c0,.68-.17,1.21-.52,1.58-.34,.37-.84,.56-1.48,.56Z"/>
      <path d="M922.87,500.81l-.18-.84h-.04c-.29,.37-.59,.62-.88,.75-.29,.13-.66,.2-1.09,.2-.58,0-1.04-.15-1.37-.45-.33-.3-.5-.73-.5-1.28,0-1.19,.95-1.81,2.85-1.87l1-.03v-.37c0-.46-.1-.8-.3-1.02-.2-.22-.52-.33-.95-.33-.49,0-1.04,.15-1.66,.45l-.27-.68c.29-.16,.61-.28,.95-.37,.34-.09,.69-.13,1.04-.13,.7,0,1.22,.16,1.56,.47,.34,.31,.51,.81,.51,1.5v4.02h-.66Zm-2.01-.63c.55,0,.99-.15,1.31-.46,.32-.3,.47-.73,.47-1.28v-.53l-.89,.04c-.71,.03-1.22,.14-1.53,.33-.31,.2-.47,.5-.47,.91,0,.32,.1,.57,.29,.74,.19,.17,.47,.25,.82,.25Z"/>
      <path d="M926.66,500.81l-2.23-5.89h.96l1.27,3.49c.29,.82,.45,1.35,.5,1.59h.04c.04-.19,.16-.58,.37-1.18,.21-.6,.68-1.9,1.41-3.9h.96l-2.23,5.89h-1.04Z"/>
      <path d="M934.5,500.81l-.18-.84h-.04c-.29,.37-.59,.62-.88,.75s-.66,.2-1.09,.2c-.58,0-1.04-.15-1.37-.45s-.5-.73-.5-1.28c0-1.19,.95-1.81,2.85-1.87l1-.03v-.37c0-.46-.1-.8-.3-1.02-.2-.22-.52-.33-.95-.33-.49,0-1.04,.15-1.67,.45l-.27-.68c.29-.16,.61-.28,.95-.37,.34-.09,.69-.13,1.04-.13,.7,0,1.22,.16,1.56,.47,.34,.31,.51,.81,.51,1.5v4.02h-.66Zm-2.01-.63c.55,0,.99-.15,1.31-.46,.32-.3,.48-.73,.48-1.28v-.53l-.89,.04c-.71,.03-1.22,.14-1.53,.33-.31,.2-.47,.5-.47,.91,0,.32,.1,.57,.29,.74,.19,.17,.47,.25,.82,.25Z"/>
      <path d="M941.56,498.72c0,.69-.25,1.23-.75,1.62-.5,.39-1.18,.58-2.04,.58-.93,0-1.65-.12-2.15-.36v-.88c.32,.14,.67,.24,1.05,.32,.38,.08,.76,.12,1.13,.12,.61,0,1.07-.12,1.38-.35,.31-.23,.46-.55,.46-.96,0-.27-.05-.5-.16-.67-.11-.17-.29-.33-.55-.48s-.65-.31-1.17-.5c-.73-.26-1.25-.57-1.57-.93-.31-.36-.47-.83-.47-1.4,0-.61,.23-1.09,.68-1.45,.45-.36,1.06-.54,1.8-.54s1.5,.14,2.15,.43l-.28,.79c-.65-.27-1.28-.41-1.89-.41-.48,0-.86,.1-1.13,.31s-.41,.5-.41,.86c0,.27,.05,.5,.15,.67,.1,.17,.27,.33,.51,.48,.24,.15,.6,.31,1.09,.48,.82,.29,1.39,.61,1.7,.95,.31,.34,.46,.77,.46,1.31Z"/>
      <path d="M945.38,500.92c-.85,0-1.51-.26-1.98-.79-.47-.52-.7-1.27-.7-2.23s.24-1.75,.71-2.28c.47-.54,1.15-.81,2.03-.81,.28,0,.57,.03,.85,.09s.5,.13,.67,.21l-.27,.76c-.2-.08-.41-.14-.64-.2-.23-.05-.44-.08-.62-.08-1.2,0-1.79,.76-1.79,2.29,0,.72,.15,1.28,.44,1.67,.29,.39,.72,.58,1.3,.58,.49,0,.99-.11,1.51-.32v.79c-.39,.2-.89,.31-1.49,.31Z"/>
      <path d="M950.96,494.82c.26,0,.5,.02,.7,.06l-.12,.83c-.24-.05-.46-.08-.64-.08-.48,0-.88,.19-1.22,.58-.34,.39-.51,.87-.51,1.44v3.16h-.89v-5.89h.74l.1,1.09h.04c.22-.38,.48-.68,.79-.89,.31-.21,.65-.31,1.02-.31Z"/>
      <path d="M952.68,493.33c0-.2,.05-.35,.15-.45,.1-.1,.23-.14,.38-.14,.14,0,.27,.05,.37,.14,.1,.1,.16,.25,.16,.45s-.05,.35-.16,.45c-.1,.1-.23,.15-.37,.15-.15,0-.28-.05-.38-.15-.1-.1-.15-.25-.15-.45Zm.97,7.48h-.89v-5.89h.89v5.89Z"/>
      <path d="M958.28,500.92c-.38,0-.73-.07-1.05-.21-.32-.14-.58-.36-.8-.65h-.06c.04,.34,.06,.67,.06,.98v2.42h-.89v-8.53h.73l.12,.81h.04c.23-.32,.5-.56,.8-.7,.3-.14,.65-.21,1.05-.21,.78,0,1.38,.27,1.81,.8,.42,.53,.64,1.28,.64,2.25s-.21,1.72-.65,2.25-1.03,.8-1.8,.8Zm-.13-5.34c-.6,0-1.04,.17-1.3,.5-.27,.33-.41,.86-.41,1.59v.2c0,.83,.14,1.42,.41,1.77,.28,.36,.72,.54,1.33,.54,.51,0,.91-.21,1.2-.62,.29-.41,.43-.98,.43-1.7s-.14-1.3-.43-1.69c-.29-.39-.69-.59-1.22-.59Z"/>
      <path d="M964.18,500.18c.16,0,.31-.01,.46-.03,.15-.02,.26-.05,.35-.07v.68c-.1,.05-.24,.08-.43,.12-.19,.03-.36,.04-.51,.04-1.14,0-1.71-.6-1.71-1.8v-3.5h-.84v-.43l.84-.37,.38-1.26h.52v1.36h1.71v.69h-1.71v3.46c0,.35,.08,.63,.25,.82,.17,.19,.4,.28,.69,.28Z"/>
      <path d="M921.42,508.45c0,.79-.27,1.41-.81,1.83-.54,.43-1.32,.64-2.33,.64h-.92v3.09h-.91v-7.85h2.04c1.96,0,2.94,.76,2.94,2.29Zm-4.07,1.69h.82c.81,0,1.39-.13,1.76-.39,.36-.26,.54-.68,.54-1.26,0-.52-.17-.91-.51-1.16-.34-.25-.87-.38-1.59-.38h-1.02v3.19Z"/>
      <path d="M922,508.12h.96l1.29,3.36c.28,.77,.46,1.32,.53,1.66h.04c.05-.18,.14-.49,.29-.94,.15-.44,.63-1.8,1.46-4.08h.96l-2.53,6.7c-.25,.66-.54,1.13-.88,1.41-.33,.28-.75,.42-1.23,.42-.27,0-.54-.03-.81-.09v-.71c.2,.04,.42,.06,.66,.06,.61,0,1.05-.34,1.31-1.03l.33-.84-2.37-5.92Z"/>
      <path d="M930.38,513.38c.16,0,.31-.01,.46-.04s.26-.05,.35-.07v.68c-.1,.05-.24,.09-.43,.12-.19,.03-.36,.05-.51,.05-1.14,0-1.71-.6-1.71-1.8v-3.5h-.84v-.43l.84-.37,.38-1.26h.52v1.37h1.71v.69h-1.71v3.46c0,.36,.08,.63,.25,.82,.17,.19,.4,.29,.69,.29Z"/>
      <path d="M936.39,514.01v-3.81c0-.48-.11-.84-.33-1.07-.22-.24-.56-.35-1.03-.35-.62,0-1.07,.17-1.36,.5-.28,.34-.43,.89-.43,1.65v3.08h-.89v-8.36h.89v2.53c0,.3-.01,.56-.04,.76h.05c.17-.28,.42-.51,.75-.67,.32-.16,.69-.24,1.11-.24,.72,0,1.26,.17,1.62,.51,.36,.34,.54,.88,.54,1.63v3.84h-.89Z"/>
      <path d="M944.19,511.06c0,.96-.24,1.71-.73,2.25s-1.15,.81-2,.81c-.53,0-.99-.12-1.4-.37s-.72-.6-.95-1.06-.33-1-.33-1.62c0-.96,.24-1.71,.72-2.24s1.15-.8,2-.8,1.48,.27,1.96,.82c.49,.55,.73,1.29,.73,2.22Zm-4.49,0c0,.75,.15,1.32,.45,1.72s.74,.59,1.33,.59,1.03-.2,1.33-.59c.3-.39,.46-.96,.46-1.72s-.15-1.32-.46-1.71c-.3-.39-.75-.58-1.34-.58s-1.02,.19-1.32,.58c-.3,.38-.45,.95-.45,1.71Z"/>
      <path d="M949.78,514.01v-3.81c0-.48-.11-.84-.33-1.07-.22-.24-.56-.35-1.03-.35-.62,0-1.07,.17-1.35,.5-.29,.33-.43,.88-.43,1.65v3.09h-.89v-5.89h.72l.15,.8h.04c.18-.29,.44-.51,.77-.67,.33-.16,.7-.24,1.1-.24,.71,0,1.24,.17,1.6,.51,.36,.34,.54,.89,.54,1.64v3.84h-.89Z"/>
      <path d="M917.36,523.95v3.27h-.91v-7.85h2.15c.96,0,1.67,.18,2.13,.55,.46,.37,.69,.92,.69,1.66,0,1.04-.53,1.74-1.58,2.11l2.13,3.53h-1.08l-1.9-3.27h-1.64Zm0-.78h1.25c.64,0,1.12-.13,1.42-.38s.45-.64,.45-1.15-.15-.89-.46-1.12c-.31-.23-.8-.34-1.47-.34h-1.19v3Z"/>
    </g>
  </g>
</svg>