<svg xmlns="http://www.w3.org/2000/svg" xmlns:xlink="http://www.w3.org/1999/xlink" viewBox="0 0 249.9 31.44"><defs><style>.cls-1,.cls-3{fill:none;}.cls-2{clip-path:url(#clip-path);}.cls-3{stroke:#1d1d1b;stroke-width:2.5px;}</style><clipPath id="clip-path" transform="translate(-0.06 -0.05)"><rect class="cls-1" width="250" height="31.58"/></clipPath></defs><title>Ativo 5</title><g id="Camada_2" data-name="Camada 2"><g id="Camada_1-2" data-name="Camada 1"><g class="cls-2"><path class="cls-3" d="M1,.85S12.5,14.73,30.84,11.14L41.49,9.81s3.7-.64,1.13,4.16c0,0-2.42,5.15,6.28,4.35,7.3-.67,5.15-13.8,29-16.83" transform="translate(-0.06 -0.05)"/><path class="cls-3" d="M78.28,14.54S75,23,85.72,25.05c0,0,4.85.64,7.87.83,1.13.07,7.6.23,9,4" transform="translate(-0.06 -0.05)"/><path class="cls-3" d="M142.05,14.54s3.32,8.43-7.45,10.51c0,0-4.84.64-7.87.83-1.13.07-7.6.23-9,4" transform="translate(-0.06 -0.05)"/><path class="cls-3" d="M154.92,13.78l-2.27-2.64a3.2,3.2,0,0,1,1.14-4.35c2.64-1.89,4.34,1.89,4.34,1.89s3.6,10.21,14.94,9.83,8.17-11.34,20.84-16.07" transform="translate(-0.06 -0.05)"/><path class="cls-3" d="M194.14,15.74S193.27,30,214.66,30.23c15.69.19,18.15-2.08,34.79-9.64" transform="translate(-0.06 -0.05)"/></g></g></g></svg>